<svg xmlns="http://www.w3.org/2000/svg" viewBox="0 0 1283.79 1310.21"><defs><style>.cls-1{fill:#24b8cc;}.cls-2{fill:#4d99ce;}.cls-3{fill:#0f218b;}.cls-4{fill:#4a66a7;}.cls-5{fill:#fefefe;}.cls-6{fill:#37bbec;}.cls-7{fill:#aae1f6;}.cls-8{fill:#fff;}</style></defs><title>Fichier 2</title><g id="Calque_2" data-name="Calque 2"><g id="Calque_1-2" data-name="Calque 1"><path class="cls-1" d="M978.72,972.62q138.32,0,276.62-.06c9.44,0,18.88.17,28.32.27q0,166.38.13,332.76c0,4.22-1.17,4.62-4.89,4.62q-484-.15-968-.09c-.92-1.86-.45-3.85-.45-5.77q0-161.79,0-323.56c0-9.34,0-9.35,9.63-9.35H969.13C972.37,971.44,975.66,971.14,978.72,972.62Z"/><path class="cls-2" d="M978.72,972.62c-2.27.07-4.55.2-6.82.2q-326.94,0-653.87,0c-8,0-7.16-.91-7.16,6.92q0,165.18,0,330.36h-1q0-166.59.16-333.16c0-4.8-2.45-4.23-5.44-4.23q-149.47,0-299,0c-1.81,0-3.88.88-5.47-.82,1.35-1.47,3.18-1.49,5-1.58s3.58-.06,5.37-.06q478.36,0,956.72,0c3.5,0,7.22-.87,10.4,1.53Z"/><path class="cls-3" d="M977.67,971.8h0c-2.28,0-4.56,0-6.84,0H5.09l-4.88,0h0C.14,969.92,0,968,0,966Q0,486.25,0,6.48A6.42,6.42,0,0,1,6.42.06h761.8s0,0,0,0c-14.15,6.3-28.37,12.08-42.34,18.44C669.61,44.17,617.67,76.28,573.81,120.41c-2.46,2.47-3.89,1.66-6.1.12-13.92-9.73-28.54-18.11-45-23-31.49-9.37-57.71-.22-76.33,26.78a113,113,0,0,0-9.28,15.92l0,0c5.37-1.5,10.25-3.16,15.27-4.18,11.8-2.41,22.53,1.16,32.77,6.66,15.3,8.21,28.67,19.13,42.13,29.95,2.88,2.31,1.07,3.81-.05,5.65-10.51,17.12-19.74,34.89-25,54.35-7.44,27.61-8.14,55.35,1.21,82.71,11.12,32.57,40.73,54.35,75.12,56.2,30.09,1.62,58.4-5.9,86.15-16.31,42.1-15.79,81-37.88,118.76-61.93,10.16-6.47,20.18-13.16,30.22-19.81,1.14-.76,2.67-1.18,3.3-3,0,0,0,0,0,0-19.8-7.43-39-16-58-25.23-47.79-23.19-94-49.12-137.37-79.92-2.75-2-3.18-3-.74-5.78C662.17,113,706.25,69.41,754.52,30.12c12.09-9.85,24.54-19.24,37.21-28.33A9.48,9.48,0,0,1,797.24,0q88.25.06,176.47,0c3,0,4.65.58,4.09,3.94a15.4,15.4,0,0,0,0,2.45V966.44C977.78,968.23,977.71,970,977.67,971.8Z"/><path class="cls-3" d="M791.89,279.64a643.89,643.89,0,0,1-87,44.91c-23.66,10.1-47.85,18.64-73.3,23.06-13.69,2.37-27.44,3.57-41.25.77-23.67-4.81-37.29-19.83-41-43.59-4.9-31.83,5.5-59.24,22.84-85,2.1-3.11,3.27-1.13,4.79.27,14.38,13.26,29.42,25.67,46,36.18,31.44,20,66.1,27.06,102.86,26.44,20.7-.35,41.24-2.67,61.85-4.17C789.22,278.49,791.1,277,791.89,279.64Z"/><path class="cls-4" d="M791.89,279.64c-1.1-1.47-2.82-.56-4.17-1.1,2.06-1.09,4.2-.75,6.6-.88A2.91,2.91,0,0,1,791.89,279.64Z"/><path class="cls-5" d="M845.53,1097.17c3.25,38,1.34,76.19,1.93,114.29.11,6.7-1.64,8.35-8.33,8.42-14.75.16-14.75.16-14.75-14.76V1072.67c0-7.8,1.22-9,9.08-9,5.7,0,11.4,0,17.11,0,4.18,0,7.09,1.7,8.69,5.73,13.13,33.09,26.38,66.14,39.4,99.28,2.43,6.19,4,12.72,5.9,19.09,1.25,1,1.27,2.3,1.24,3.67a5.62,5.62,0,0,0,.81,2,7.16,7.16,0,0,1-.8-2.8c-.4-2.94.54-5.93-.37-8.84-1.76-36.45-.7-72.93-1.05-109.39-.07-7.51,1.24-8.77,8.76-8.79,13.87,0,13.87,0,13.87,13.95q0,66.68,0,133.35c0,7.42-1.44,8.88-8.74,8.91-5.7,0-11.4-.05-17.1,0-3.48,0-6-1.39-7.29-4.64-14.67-37.17-31.58-73.44-44.62-111.26C848.16,1100.77,844.74,1094.85,845.53,1097.17Z"/><path class="cls-5" d="M449.41,1141.47c0-21.18.07-42.36,0-63.54-.07-14.74-.33-14.43,14-14.27,9.12.1,18.25-.05,27.37,0,29.41.26,47.24,14.47,53.69,43.3a163.49,163.49,0,0,1-.16,71.23c-6,27.56-22.38,40.8-50.61,41.59-12.38.35-24.77.12-37.15,0-5.43,0-7.13-1.84-7.14-7.51Q449.36,1176.9,449.41,1141.47Z"/><path class="cls-5" d="M1081.92,1063.67h6.84c7.23,0,8.82,1.13,10.85,7.86q21.08,69.76,42.11,139.54c2.09,6.94.66,8.77-6.77,8.8-3.42,0-6.84,0-10.26,0-6.39-.07-8.42-1.63-10-7.69-2.51-9.43-5.06-18.84-7.42-28.3-.66-2.64-1.75-3.67-4.62-3.64-13.51.16-27,.14-40.54,0-2.77,0-3.94.8-4.59,3.61-2.24,9.65-5,19.19-7.17,28.86-1.19,5.29-4.21,7.34-9.33,7.17-3.26-.11-6.52,0-9.77,0-6.54,0-8.14-2.1-6.37-8.52,3.1-11.28,6.36-22.52,9.53-33.78q14.41-51.15,28.81-102.29c3.28-11.61,3.31-11.6,15.31-11.61Z"/><path class="cls-5" d="M682.06,1221.19a110.07,110.07,0,0,1-34.45-6c-4.91-1.7-6-3.9-4.94-9,.56-2.54,1.16-5.07,1.76-7.6,1.56-6.48,3.42-7.58,9.63-5.33,8.45,3,17,5.45,26.07,5.83a37.31,37.31,0,0,0,12.54-1.38c15.86-4.77,20.88-23.45,9.6-35.59-4.3-4.62-9.76-7.53-15.27-10.35-7.81-4-16.07-7.12-23.54-11.77-15.47-9.63-22-24.36-18.94-42.59,2.9-17.35,14.91-29.88,32.34-33.72,14.46-3.18,28.44-.92,42.2,3.78a8.07,8.07,0,0,1,1.38.49c3.62,2.11,3.55,9.81-.21,17.62-1.8,3.74-4.8,3.18-7.93,2.1-9.16-3.16-18.43-5.42-28.22-3.48-7.73,1.53-13,5.77-14.84,13.63s-.45,14.91,6.29,20.17c5.56,4.35,12.07,7,18.31,10.15s12.42,5.76,18.24,9.28c16.9,10.25,23.86,26.45,20,47.44-3.39,18.57-15.06,29.71-33.12,34.38A60.78,60.78,0,0,1,682.06,1221.19Z"/><path class="cls-6" d="M905.44,1181.85c1.32,3.23.71,6.66,1,10a.69.69,0,0,1-1.07-.08c-.26-1.33-.52-2.66-.79-4C906,1186,904.75,1183.76,905.44,1181.85Z"/><path class="cls-5" d="M434.39,718.48c-9.91,14.11-22.79,23.74-39.72,26.43-33.62,5.34-64.3-7.76-78.95-44.85-5.85-14.81-8.81-30.27-10.19-46-2.28-26.23-2.21-52.42,3.51-78.26,4.73-21.35,13.8-40.36,31.89-53.82,28.83-21.43,69.74-17.17,91.14,9.4,2,2.51,3.75,5.24,6.1,8.53,1.3-5.59,2.46-10.59,3.64-15.58,2.12-8.93,7.09-12.91,16.27-13,6.68-.05,13.36-.1,20,0,6.87.12,11.25,4.14,12.1,10.94a39.66,39.66,0,0,1,.19,4.88q0,108,0,216c0,14.16-.36,28.32-3.1,42.32-5.94,30.34-24.61,48.36-54.36,54.11-36.64,7.09-72.9,4.16-108.36-7.62-5.83-1.94-8.06-5.13-7-11.15a213.89,213.89,0,0,1,8.29-30.56c1.89-5.52,6.95-7,14-4.79a193.6,193.6,0,0,0,51.4,8.3,66.47,66.47,0,0,0,14.58-1.17C422.7,789.36,432,778.84,434,761,435.54,746.9,434.57,732.77,434.39,718.48Z"/><path class="cls-5" d="M211.49,714.78c-9.75,16.8-23.08,27.44-40.85,31.06-32.37,6.59-66.49-4.33-81.7-44.17-6-15.65-9-31.92-10.21-48.52-2-27-2-54,4.42-80.61,3.66-15.06,10-28.87,20.27-40.65,27.29-31.19,77.86-32.22,102.85,1.32.29.4.62.76,1.18,1.45,1.13-1.87.68-3.62.68-5.23q0-55.47,0-110.93c0-11,4-14.93,15.05-15q12.47,0,24.93,0c11.56,0,15.6,4,15.6,15.53q0,84.3,0,168.6,0,70.37,0,140.74c0,12.41-4,16.39-16.32,16.4-5.38,0-10.76.1-16.13,0-9.38-.23-14.26-4.39-16.25-13.64C214,726.1,212.86,721.06,211.49,714.78Z"/><path class="cls-5" d="M657.94,718.15c-12.79,17.42-30.15,25.33-50.15,28.34-11.36,1.71-22.75,1.87-34-.78-19-4.48-32.23-16-38.82-34.35a100.31,100.31,0,0,1-2.57-61.94c7.19-25.91,25.9-39.56,50.85-46.11,13.17-3.45,26.72-3.79,40.17-4.92,8.11-.67,16.23-1.35,24.35-1.87,2.23-.15,3.14-.8,3.14-3.16,0-5.72,0-11.44-1-17.05-2.3-12.36-10.68-18.82-25.32-20C607,555,589.84,557.59,573,562.49c-1.71.5-3.4,1.11-5.14,1.54-8.53,2.07-13.39-.86-15.54-9.38-1.83-7.25-3.69-14.5-5.39-21.78-1.91-8.17.45-12.31,8.59-14.66,27-7.81,54.33-12,82.46-8.77a95.16,95.16,0,0,1,30.46,8.25c22.57,10.79,33,29.91,36.49,53.66a215.83,215.83,0,0,1,2,32.64c-.06,24.44.21,48.88-.09,73.31-.22,18.62.58,37.09,4.28,55.4,1.53,7.55-1.73,11.76-9.38,12-9.77.33-19.56.29-29.32,0-6.4-.19-10-3.51-11.41-10.06C659.79,729.47,659,724.19,657.94,718.15Z"/><path class="cls-5" d="M744.68,628.31c-.36-24.33,3.37-46.66,14.16-67.33,17-32.62,44.48-49.57,80.84-52.4a117.64,117.64,0,0,1,49,6.82c2.91,1,5.82,2.17,8.16,4.29,3,2.74,4.37,6,3,10.07-2.5,7.56-4.85,15.17-7.39,22.71-2.87,8.51-7.54,10.9-16.2,8.22-6.38-2-12.78-3.88-19.49-4.25-27-1.51-44.86,12.19-51,39.52a142.94,142.94,0,0,0,1.08,66.79c5.8,23.06,21,34.78,44.73,35.27a112.49,112.49,0,0,0,32.4-3.56c8.32-2.29,12.11.08,14,8.72,1.72,7.94,3.21,15.94,4.63,23.94,1.23,6.89-1.06,10.76-7.7,13.21a116.19,116.19,0,0,1-28.52,6.2c-17.92,1.85-35.77,2-53.29-3.07-32.57-9.33-51.51-31.92-61.21-63.35C746.52,662.86,744.65,645.1,744.68,628.31Z"/><path class="cls-7" d="M905.35,1191.77l1.07.08a2.31,2.31,0,0,1,.48,3.09A3.37,3.37,0,0,1,905.35,1191.77Z"/><path class="cls-1" d="M473.3,1141.55c0-17.74.07-35.48-.07-53.21,0-3.11.71-4.34,4-4.13,5.35.34,10.78-.21,16.08.43,15.78,1.88,23.42,12.52,26.35,26.79,4.34,21.08,4.53,42.37-.5,63.39-3.93,16.46-13,23.31-30,23.71-3.9.1-7.83-.18-11.71.13-3.53.28-4.32-1.06-4.29-4.4C473.38,1176.69,473.3,1159.12,473.3,1141.55Z"/><path class="cls-1" d="M1081.74,1078.35c4,27.1,12,51.72,18.18,76.8.84,3.44,0,4.15-3.27,4.1-9.77-.17-19.55-.19-29.32,0-3.38.06-3.6-.93-2.87-3.93,5.21-21.48,10.25-43,15.26-64.54C1080.55,1087.18,1080.92,1083.47,1081.74,1078.35Z"/><path class="cls-3" d="M436.85,627.48c-.54,17.07-1,33.21-6.75,48.56-7.05,18.64-22.68,26.18-41.51,20.27-9.67-3-15.32-10-19-18.95-4.39-10.69-5.78-22-6.38-33.39-1.09-20.54-1.09-41.06,4.56-61.06,3.4-12,9.45-22.21,22.53-26.06,15.37-4.54,28.18.59,36.05,14.54,6.46,11.48,8.29,24.22,9.51,37C436.51,615.07,436.58,621.76,436.85,627.48Z"/><path class="cls-3" d="M210.18,627c-.53,17.93-1,34.23-6.93,49.71-7,18.25-21.63,25.61-40.19,20.45-10.33-2.88-16.36-10.18-20.17-19.67-4.67-11.65-5.91-24-6.48-36.34-.89-19.41-.5-38.74,4.4-57.71a63.79,63.79,0,0,1,5.08-12.63c9.48-18.77,41.89-22.54,53.73.28,5.83,11.24,8.15,23.27,9.39,35.6C209.75,614,209.87,621.29,210.18,627Z"/><path class="cls-3" d="M650.87,652.58c0,3.26-.19,6.53,0,9.77,1.62,23.37-22.78,43.14-47,39.59-10.46-1.53-17.91-10.41-19.07-22.39a54.74,54.74,0,0,1,1.32-18.43c3.85-15.71,15.32-22.24,30-24.47,10.31-1.57,20.77-1.56,31.16-2.22,2.82-.18,3.73.69,3.62,3.5C650.73,642.8,650.87,647.7,650.87,652.58Z"/><path class="cls-8" d="M768.26.06C754.09,6.37,740,12.13,726,18.5,669.7,44.14,617.76,76.25,573.9,120.39c-2.46,2.47-3.89,1.66-6.1.12-13.92-9.74-28.54-18.11-45-23-31.49-9.37-57.71-.22-76.33,26.78a111,111,0,0,0-9.28,16c5.38-1.5,10.27-3.16,15.29-4.19,11.8-2.41,22.53,1.17,32.77,6.66,15.3,8.21,28.67,19.13,42.13,29.95,2.88,2.32,1.07,3.82,0,5.65-10.51,17.12-19.74,34.89-25,54.35-7.44,27.61-8.14,55.35,1.21,82.72,11.12,32.56,40.73,54.34,75.12,56.19,30.09,1.63,58.4-5.9,86.15-16.31,42.1-15.79,80.95-37.88,118.76-61.93,10.16-6.47,20.18-13.15,30.22-19.81,1.14-.75,2.68-1.18,3.31-3-19.8-7.42-39-16-58-25.23-47.79-23.18-94-49.11-137.37-79.92-2.75-2-3.18-3-.74-5.78C662.26,113,706.34,69.38,754.61,30.09c12.12-9.87,24.6-19.29,37.31-28.39A8.43,8.43,0,0,1,797.24,0C852.89.06,766.38.06,768.26.06ZM623.1,256.24c31.44,20,66.1,27.06,102.86,26.44,20.7-.35,41.24-2.67,61.85-4.17,1.5,0,3.38-1.52,4.17,1.11a645,645,0,0,1-87,44.9c-23.66,10.1-47.85,18.64-73.3,23.06-13.69,2.37-27.44,3.58-41.25.77-23.67-4.8-37.29-19.82-41-43.58-4.9-31.84,5.5-59.25,22.84-85,2.1-3.11,3.27-1.13,4.79.27C591.5,233.32,606.54,245.73,623.1,256.24Z"/></g></g></svg>