<svg xmlns="http://www.w3.org/2000/svg" viewBox="0 0 190.34 179.69"><defs><style>.cls-1{fill:#0eaae0;}.cls-2{fill:#231f20;}.cls-3{fill:#27aae1;}</style></defs><title>Fichier 1</title><g id="Calque_2" data-name="Calque 2"><g id="Calque_1-2" data-name="Calque 1"><path class="cls-1" d="M18.94,134.72l-.06-.05A7.73,7.73,0,0,0,14,133.08H0v27H3V148.15H14.61a11.29,11.29,0,0,0,2.06-.32l.14,0a7.75,7.75,0,0,0,3.94-3.49l.05-.13a9.59,9.59,0,0,0,.69-2.67v-1.89L21.12,138a7.15,7.15,0,0,0-2.18-3.28M3,136.06h9.34l1.85,0a5.11,5.11,0,0,1,1.93.36,4.44,4.44,0,0,1,2.53,4.16,4.83,4.83,0,0,1-.79,2.77,4,4,0,0,1-3.29,1.84H3Z"/><path class="cls-1" d="M42.47,134.93l0,0a12.09,12.09,0,0,0-5.31-1.71H37a10.71,10.71,0,0,0-2.64.21,10.79,10.79,0,0,0-5.69,2.8,11,11,0,0,0-3.13,8.12v15.73h3.05V148.21H44.16v11.85h3V143.74a10,10,0,0,0-4.67-8.81m1.69,8.69v1.67H28.56v-.9a8.13,8.13,0,0,1,1.93-5.55,7.58,7.58,0,0,1,6.09-2.61,9.32,9.32,0,0,1,5.2,1.87,7.89,7.89,0,0,1,2.38,5.52"/><path class="cls-1" d="M71.31,145.28a8.5,8.5,0,0,0,1.38-3.65v-1.84a7.4,7.4,0,0,0-2.64-5.16l0,0a7.38,7.38,0,0,0-4.31-1.51H51.21v27h3V148.15h9.13c.49.81,2.05,3.47,6.63,11.5l.38.67L73,159l-6.27-11a7.18,7.18,0,0,0,4.62-2.76M54.19,136H65.64a4.87,4.87,0,0,1,2.62.95,4.74,4.74,0,0,1,1.58,3.66,4.62,4.62,0,0,1-1.16,3.13l0,0c-.67.92-2,1.38-3.88,1.38H54.19Z"/><rect class="cls-1" x="76.78" y="133.08" width="2.92" height="26.98"/><path class="cls-1" d="M87,134.38l-.09.06a7.58,7.58,0,0,0-3,6.17v.3a7.87,7.87,0,0,0,1.75,4.79l.07.08A6.38,6.38,0,0,0,90.24,148h7.84l1,.15a4.24,4.24,0,0,1,2.36,1.71,5.92,5.92,0,0,1,.8,2.52,4.42,4.42,0,0,1-2.55,4.42c-.19.11-.89.37-3.25.37H83.77v2.86H98.44a7.15,7.15,0,0,0,3-.82,7.31,7.31,0,0,0,3.75-6.66,7.82,7.82,0,0,0-2.62-6l-.09-.07A6.44,6.44,0,0,0,99,145.11H91a5.33,5.33,0,0,1-1.61-.34,4.43,4.43,0,0,1-2.48-4.1,4.3,4.3,0,0,1,2.29-4.12l0,0c.28-.18,1.09-.47,3.29-.47h12.78v-2.92H91.42A8.47,8.47,0,0,0,87,134.38"/><path class="cls-2" d="M137.89,135.26h0a11.75,11.75,0,0,0-5.17-1.65,11.68,11.68,0,0,0-8.06,2.9,10.68,10.68,0,0,0-3,7.83v15.32h2.24V147.8h16.35v11.85h2.17V143.74a9.63,9.63,0,0,0-4.49-8.48m2.32,8.36v2.07H123.8v-1.3a8.63,8.63,0,0,1,2-5.81,8.07,8.07,0,0,1,6.41-2.75,9.73,9.73,0,0,1,5.44,1.94,8.42,8.42,0,0,1,2.54,5.85"/><path class="cls-2" d="M154.27,134.58h0a13.76,13.76,0,0,0-6.46,6,14.87,14.87,0,0,0-1.45,5.94,15.89,15.89,0,0,0,1,5,15,15,0,0,0,2.2,3.6,13.12,13.12,0,0,0,9.67,4.49h7.9v-2.1h-6.95a9.72,9.72,0,0,1-3.72-.49l-.1,0a9.7,9.7,0,0,1-4-2.13,11.29,11.29,0,0,1-3.77-8.2,11.1,11.1,0,0,1,2-6.3,10.94,10.94,0,0,1,9.05-4.68h7.49v-2.22h-7.31a14.19,14.19,0,0,0-5.52,1.09"/><path class="cls-2" d="M182.86,135.71h7.48v-2.22H183a14.36,14.36,0,0,0-5.54,1.09,13.74,13.74,0,0,0-6.45,6,14.87,14.87,0,0,0-1.45,5.94,15.8,15.8,0,0,0,1,5,15.09,15.09,0,0,0,2.21,3.6,13.12,13.12,0,0,0,9.67,4.49h7.89v-2.1h-7a9.63,9.63,0,0,1-3.71-.49l-.11,0a9.7,9.7,0,0,1-4-2.13,11.27,11.27,0,0,1-3.77-8.2,11.11,11.11,0,0,1,2-6.3,10.93,10.93,0,0,1,9.05-4.68"/><path class="cls-2" d="M44.41,178a5.73,5.73,0,0,1-4,1.67,5.69,5.69,0,1,1,0-11.38,5.73,5.73,0,0,1,4,1.67l-.59.51A4.87,4.87,0,0,0,40.36,169a4.91,4.91,0,0,0,0,9.81,5,5,0,0,0,3.48-1.41Z"/><path class="cls-2" d="M58.46,179.5H57.33l-3.84-4.21h-3v4.21h-.86V168.38h4.9a3.44,3.44,0,0,1,3.65,3.46,3.28,3.28,0,0,1-3.61,3.4Zm-8-5h3.94a2.48,2.48,0,0,0,2.81-2.65,2.56,2.56,0,0,0-2.71-2.66h-4Z"/><polygon class="cls-2" points="63.44 168.38 70.92 177.58 70.92 168.38 71.76 168.38 71.76 179.5 71.43 179.5 63.93 170.32 63.93 179.5 63.07 179.5 63.07 168.38 63.44 168.38"/><path class="cls-2" d="M86.26,179.5,85,176.77H78.39l-1.2,2.73h-.93l5-11.12h.94l5,11.12ZM84.7,176l-3-6.76-3,6.76Z"/><rect class="cls-2" x="91.51" y="174.08" width="5.56" height="0.83"/><polygon class="cls-2" points="102.75 168.38 110.23 177.58 110.23 168.38 111.07 168.38 111.07 179.5 110.73 179.5 103.24 170.32 103.24 179.5 102.38 179.5 102.38 168.38 102.75 168.38"/><path class="cls-2" d="M127.61,174a5.61,5.61,0,1,1-11.21,0,5.61,5.61,0,1,1,11.21,0m-10.37,0a4.78,4.78,0,1,0,9.55,0A4.62,4.62,0,0,0,122,169c-3.2,0-4.78,2.32-4.77,4.94"/><path class="cls-2" d="M141.69,179.5h-1.12l-3.85-4.21h-3v4.21h-.86V168.38h4.89a3.44,3.44,0,0,1,3.66,3.46,3.29,3.29,0,0,1-3.61,3.4Zm-8-5h3.94a2.49,2.49,0,0,0,2.81-2.65,2.56,2.56,0,0,0-2.72-2.66h-4Z"/><path class="cls-2" d="M155.62,173.81A5.34,5.34,0,0,1,150,179.5h-3.77V168.38H150a5.35,5.35,0,0,1,5.64,5.43m-8.55-4.62v9.48H150a4.74,4.74,0,1,0,0-9.48Z"/><path class="cls-2" d="M76.08,90.42l-6.68-4-5-8-3.74-8,.26-1.3,1.16-5.46,6.42-1.32,4.7-13.87L74.5,43l-2-2L74.19,28.3,95,32.3l8.72-4.47,5.6-3L113.18,23l4-1.95,6.94-3.22,6.37,19.6L125.86,47,127,58.44l3.42,1,5.39,4.68L119.53,86.35h-4.71l-4.66-6.87H83.73l-3.06,7.43ZM70.85,85l5.09,3L79,85.64l3.36-8.18h28.87l4.66,6.87h2.6l14.58-19.89-3.66-3.17L125.12,60l-1.33-13.36,4.5-9.33-5.42-16.65L118,22.9l-4,1.94-3.86,1.83-5.56,2.95-9.35,4.8L75.91,30.69l-1.3,9.6,2.13,2L75.12,49,70,64.1l-6.25,1.28-1,4.79,3.43,7.35Z"/><path class="cls-3" d="M74.55,2.12a1.68,1.68,0,0,0-.08-.59A2,2,0,0,0,74,.75,2,2,0,0,0,72.69,0,1.93,1.93,0,0,0,71.2.48L65.79,5.26l-.27-.07-10-4.13a1.23,1.23,0,0,0-1.12.27l-.38.33a1.23,1.23,0,0,0-.41,1,1.25,1.25,0,0,0,.59.93l8,4.72L57.9,12.14l-2-.51a1.16,1.16,0,0,0-1.1.26l-1.63,1.43L57,15.65l1.85,4.09,1.62-1.43a1.21,1.21,0,0,0,.4-1.06l-.27-2L65,11.42l.6,1.36.12.23h0l3,6.9a1.19,1.19,0,0,0,.85.69,1.07,1.07,0,0,0,.25,0,1.27,1.27,0,0,0,.81-.3L71,20a1.2,1.2,0,0,0,.4-1.09L69,8.52l0-.3,5-4.7A1.86,1.86,0,0,0,74.55,2.12Z"/><path class="cls-3" d="M95.81,113.34a48.43,48.43,0,0,1-6.47-.38c-24.08-2.17-38.13-21.31-38.71-22.13-27.7-38.73.74-72.43,1-72.76l2.33,2A59,59,0,0,0,43.56,40.72C38.9,57.38,42.12,73.64,53.13,89c.13.18,13.86,18.83,36.53,20.85l.11,0c.28,0,28.2,4.33,47.81-17.64A56.19,56.19,0,0,0,149.1,72.38c5.47-16.36,3-33-7.49-49.46l2.6-1.65c26.21,41.34-4.08,72.8-4.39,73.11C125,110.94,105.74,113.34,95.81,113.34Z"/></g></g></svg>