<?xml version="1.0" encoding="utf-8"?>
<!-- Generator: Adobe Illustrator 23.0.3, SVG Export Plug-In . SVG Version: 6.00 Build 0)  -->
<svg version="1.1" id="Calque_1" xmlns="http://www.w3.org/2000/svg" xmlns:xlink="http://www.w3.org/1999/xlink" x="0px" y="0px"
	 viewBox="0 0 407 123.3" style="enable-background:new 0 0 407 123.3;" xml:space="preserve">
<style type="text/css">
	.st0{fill:#1F1D23;}
	.st1{fill:url(#SVGID_1_);}
</style>
<title>Fichier 1</title>
<g>
	<g id="Calque_1-2">
		<g id="Logo">
			<g id="pocion-2">
				<path class="st0" d="M38.7,28.3c8.8-0.1,17.1,3.6,23,10.2c6.3,6.8,9.5,15.1,9.5,24.9S68,81.6,61.7,88.3
					c-5.8,6.6-14.2,10.3-23,10.2c-9.3,0-16.5-3.2-21.5-9.7v34.4H0V30.2h17.2V38C22.2,31.5,29.4,28.3,38.7,28.3z M22.3,76.9
					c3.5,3.5,8.2,5.4,13.2,5.3c4.9,0.1,9.7-1.8,13.2-5.3c3.5-3.6,5.4-8.5,5.3-13.5c0.2-5-1.7-9.9-5.3-13.5
					c-3.5-3.5-8.3-5.4-13.2-5.3c-4.9-0.2-9.7,1.8-13.2,5.3c-3.5,3.6-5.4,8.5-5.2,13.5C17,68.4,18.8,73.3,22.3,76.9z"/>
				<path class="st0" d="M139.9,88.3c-6.6,6.7-15.6,10.4-25,10.2C95.7,98.7,80,83.3,79.8,64.1c0-0.2,0-0.5,0-0.7
					C79.6,44.2,95,28.5,114.1,28.3c0.3,0,0.5,0,0.8,0c19.3-0.2,35,15.2,35.2,34.5c0,0.2,0,0.4,0,0.6
					C150.4,72.8,146.6,81.8,139.9,88.3z M102.1,76.6c3.4,3.4,8,5.3,12.8,5.2c4.8,0.1,9.5-1.8,12.9-5.2c3.5-3.5,5.4-8.2,5.2-13.2
					c0.2-4.9-1.7-9.7-5.2-13.2c-3.4-3.4-8.1-5.3-12.9-5.2c-4.8-0.1-9.5,1.7-12.8,5.2c-3.4,3.5-5.3,8.3-5.1,13.2
					C96.8,68.3,98.7,73.1,102.1,76.6z"/>
				<path class="st0" d="M193.9,98.5c-10,0-18.4-3.4-25.1-10.1c-6.7-6.7-10-15.1-10-25c0-9.9,3.3-18.3,10-25s15-10.1,25.1-10.1
					c6.2-0.1,12.3,1.5,17.7,4.6c5.1,2.9,9.3,7.3,12.1,12.5l-14.8,8.6c-1.3-2.7-3.4-5-6.1-6.5c-2.8-1.6-5.9-2.4-9.1-2.4
					c-4.8-0.2-9.4,1.7-12.8,5.1c-3.4,3.5-5.2,8.2-5,13.1c-0.2,4.8,1.6,9.5,5,13c3.4,3.4,8,5.3,12.8,5.1c3.2,0,6.4-0.8,9.2-2.4
					c2.6-1.5,4.7-3.7,6-6.4l15,8.5c-2.9,5.2-7.2,9.6-12.4,12.6C206.2,97,200.1,98.6,193.9,98.5z"/>
				<path class="st0" d="M241.5,22.2c-2.8,0-5.5-1.1-7.4-3.1c-2-1.9-3.2-4.6-3.1-7.4c0-2.8,1.1-5.5,3.1-7.4c1.9-2.1,4.6-3.2,7.4-3.2
					c2.8,0,5.5,1.1,7.5,3.2c2,2,3.1,4.6,3.1,7.4c0,2.8-1.1,5.4-3.1,7.4C247.1,21.1,244.3,22.2,241.5,22.2z M233,96.7V30.2h17.2v66.5
					H233z"/>
				<path class="st0" d="M322.5,88.3c-13.7,13.8-35.9,13.9-49.7,0.2c-6.7-6.6-10.5-15.7-10.4-25.2C262.1,44,277.6,28,297,27.6
					c19.4-0.3,35.4,15.2,35.8,34.6c0,0.4,0,0.8,0,1.2C333,72.8,329.2,81.8,322.5,88.3z M284.7,76.6c3.4,3.4,8,5.3,12.8,5.2
					c4.8,0.1,9.5-1.8,12.9-5.2c3.5-3.5,5.4-8.2,5.2-13.2c0.2-4.9-1.7-9.7-5.2-13.2c-3.4-3.4-8.1-5.3-12.9-5.2
					c-4.8-0.1-9.5,1.7-12.8,5.2c-3.4,3.5-5.3,8.3-5.1,13.2C279.4,68.3,281.2,73.1,284.7,76.6z"/>
				<path class="st0" d="M381.8,28.3c7.3,0,13.3,2.4,18,7.3c4.7,4.9,7.1,11.6,7.2,20.2v40.8h-17.2V57.9c0-4.4-1.2-7.8-3.6-10.2
					c-2.6-2.4-6-3.7-9.6-3.5c-4.4,0-8,1.4-10.6,4.1s-4,6.9-4,12.4v35.9h-17.1V30.2H362v7.4C366.2,31.4,372.8,28.3,381.8,28.3z"/>
				<polygon class="st0" points="312.6,16.6 309.1,22.7 310.9,23.7 306.4,31.5 319.5,38.9 323.9,31.1 325.6,32.1 329.1,26 				"/>
				
					<linearGradient id="SVGID_1_" gradientUnits="userSpaceOnUse" x1="297.585" y1="81.0352" x2="297.585" y2="44.3119" gradientTransform="matrix(1 0 0 -1 0 126.0571)">
					<stop  offset="0" style="stop-color:#75F1ED"/>
					<stop  offset="0.43" style="stop-color:#4CD4DC"/>
					<stop  offset="0.79" style="stop-color:#2FC0D0"/>
					<stop  offset="1" style="stop-color:#24B8CC"/>
				</linearGradient>
				<path class="st1" d="M297.5,45c-4.8-0.1-9.5,1.7-12.8,5.2c-3.4,3.5-5.3,8.3-5.1,13.2c-0.2,4.9,1.7,9.7,5.1,13.2
					c3.4,3.4,8,5.3,12.8,5.2c4.8,0.1,9.5-1.8,12.9-5.2c3.5-3.5,5.4-8.2,5.2-13.2c0.2-4.9-1.7-9.7-5.2-13.2
					C307,46.8,302.4,44.9,297.5,45z"/>
			</g>
		</g>
	</g>
</g>
</svg>
