<svg xmlns="http://www.w3.org/2000/svg" xmlns:xlink="http://www.w3.org/1999/xlink" viewBox="0 0 406.98 122.23"><defs><style>.cls-1{fill:#fff;}.cls-2{fill:url(#Dégradé_sans_nom_107);}</style><linearGradient id="Dégradé_sans_nom_107" x1="297.58" y1="15.59" x2="297.58" y2="97.49" gradientUnits="userSpaceOnUse"><stop offset="0" stop-color="#75f1ed"/><stop offset="0.43" stop-color="#4cd4dc"/><stop offset="0.79" stop-color="#2fc0d0"/><stop offset="1" stop-color="#24b8cc"/></linearGradient></defs><title>Fichier 2</title><g id="Calque_2" data-name="Calque 2"><g id="Calque_1-2" data-name="Calque 1"><g id="Logo"><g id="pocion-light-2"><path class="cls-1" d="M38.7,27.27A30.29,30.29,0,0,1,61.65,37.44q9.5,10.17,9.5,24.94t-9.5,24.93A30.26,30.26,0,0,1,38.7,97.49q-14,0-21.54-9.71v34.45H0V29.13H17.16V37Q24.74,27.27,38.7,27.27ZM22.34,75.88a17.74,17.74,0,0,0,13.17,5.25,17.94,17.94,0,0,0,13.23-5.25A18.24,18.24,0,0,0,54,62.38a18.24,18.24,0,0,0-5.26-13.5,17.94,17.94,0,0,0-13.23-5.26,17.74,17.74,0,0,0-13.17,5.26,18.42,18.42,0,0,0-5.18,13.5A18.42,18.42,0,0,0,22.34,75.88Z"/><path class="cls-1" d="M139.91,87.31a34.09,34.09,0,0,1-25,10.18A34.75,34.75,0,0,1,79.8,62.38a34.73,34.73,0,0,1,35.11-35.11,34.86,34.86,0,0,1,35.25,35.11A33.78,33.78,0,0,1,139.91,87.31ZM102.08,75.54a17.28,17.28,0,0,0,12.83,5.19,17.51,17.51,0,0,0,12.9-5.19A17.81,17.81,0,0,0,133,62.38a17.84,17.84,0,0,0-5.19-13.17A17.51,17.51,0,0,0,114.91,44a17.28,17.28,0,0,0-12.83,5.19A18,18,0,0,0,97,62.38,17.91,17.91,0,0,0,102.08,75.54Z"/><path class="cls-1" d="M193.91,97.49q-15,0-25.07-10.11t-10-25q0-14.9,10-25t25.07-10.1a34.5,34.5,0,0,1,17.69,4.65,30.93,30.93,0,0,1,12.1,12.5l-14.76,8.65a15.1,15.1,0,0,0-6.05-6.52,17.56,17.56,0,0,0-9.11-2.39A17.17,17.17,0,0,0,181,49.28a17.85,17.85,0,0,0-5,13.1,17.67,17.67,0,0,0,5,13,17.17,17.17,0,0,0,12.77,5.12A18.22,18.22,0,0,0,203,78.14a14.61,14.61,0,0,0,6-6.45L224,80.2A33.37,33.37,0,0,1,211.6,92.77,34.17,34.17,0,0,1,193.91,97.49Z"/><path class="cls-1" d="M241.53,21.15A10.1,10.1,0,0,1,234.14,18,10.09,10.09,0,0,1,231,10.64a10.33,10.33,0,0,1,3.12-7.45A10,10,0,0,1,241.53,0,10.12,10.12,0,0,1,249,3.19a10.34,10.34,0,0,1,3.13,7.45A10.1,10.1,0,0,1,249,18,10.22,10.22,0,0,1,241.53,21.15ZM233,95.63V29.13h17.16v66.5Z"/><path class="cls-1" d="M381.84,27.27q10.91,0,18,7.31T407,54.8V95.63H389.82V56.92q0-6.64-3.59-10.17a13.09,13.09,0,0,0-9.58-3.52q-6.64,0-10.64,4.12t-4,12.37V95.63H344.87V29.13H362v7.45Q368.28,27.27,381.84,27.27Z"/><path class="cls-2" d="M322.52,37.44c-.6-.6-1.21-1.16-1.83-1.7l3.22-5.66,1.73,1L329.1,25l-16.51-9.39-3.46,6.09,1.74,1-3.37,5.92a37.13,37.13,0,0,0-10-1.31,34.73,34.73,0,0,0-35.11,35.11,35.18,35.18,0,1,0,70.35,0A33.79,33.79,0,0,0,322.52,37.44Zm-12.1,38.1a17.51,17.51,0,0,1-12.9,5.19,17.3,17.3,0,0,1-12.84-5.19,18,18,0,0,1-5.12-13.16,18,18,0,0,1,5.12-13.17A17.3,17.3,0,0,1,297.52,44a17.51,17.51,0,0,1,12.9,5.19,17.84,17.84,0,0,1,5.19,13.17A17.81,17.81,0,0,1,310.42,75.54Z"/></g></g></g></g></svg>