<?xml version="1.0" encoding="utf-8"?>
<!-- Generator: Adobe Illustrator 23.0.3, SVG Export Plug-In . SVG Version: 6.00 Build 0)  -->
<svg version="1.1" id="Calque_1" xmlns="http://www.w3.org/2000/svg" xmlns:xlink="http://www.w3.org/1999/xlink" x="0px" y="0px"
	 viewBox="0 0 85 85" style="enable-background:new 0 0 85 85;" xml:space="preserve">
<style type="text/css">
	.st0{fill:#1F1D23;}
	.st1{fill:url(#SVGID_1_);}
</style>
<title>Fichier 3</title>
<g>
	<g id="Calque_1-2">
		<g id="Logo">
			<path class="st0" d="M67.4,23.4c-0.6-0.6-1.2-1.2-1.8-1.7l3.2-5.7l1.7,1l3.5-6.1L57.5,1.5L54,7.6l1.7,1l-3.4,5.9
				c-3.3-0.9-6.6-1.3-10-1.3C33.1,13,24,16.7,17.5,23.4C10.8,30,7.1,39,7.3,48.3c-0.2,9.4,3.5,18.4,10.2,24.9
				C24,80,33.1,83.6,42.4,83.4c9.4,0.2,18.4-3.5,25-10.2c6.7-6.5,10.4-15.6,10.3-24.9C77.9,39,74.2,29.9,67.4,23.4z M55.3,61.5
				c-3.4,3.4-8.1,5.3-12.9,5.2c-4.8,0.1-9.5-1.8-12.8-5.2c-3.4-3.5-5.3-8.3-5.1-13.2c-0.2-4.9,1.7-9.7,5.1-13.2
				c3.4-3.4,8-5.3,12.8-5.2c4.8-0.1,9.5,1.7,12.9,5.1c3.5,3.5,5.4,8.3,5.2,13.2C60.7,53.3,58.8,58.1,55.3,61.5z"/>
			
				<linearGradient id="SVGID_1_" gradientUnits="userSpaceOnUse" x1="42.4993" y1="57.1266" x2="42.4993" y2="20.4166" gradientTransform="matrix(1 0 0 -1 0 87.1)">
				<stop  offset="0" style="stop-color:#75F1ED"/>
				<stop  offset="0.43" style="stop-color:#4CD4DC"/>
				<stop  offset="0.79" style="stop-color:#2FC0D0"/>
				<stop  offset="1" style="stop-color:#24B8CC"/>
			</linearGradient>
			<path class="st1" d="M42.4,30c-4.8-0.1-9.5,1.7-12.8,5.2c-3.4,3.5-5.3,8.3-5.1,13.2c-0.2,4.9,1.7,9.7,5.1,13.2
				c3.4,3.4,8,5.3,12.8,5.2c4.8,0.1,9.5-1.8,12.9-5.2c3.5-3.5,5.4-8.3,5.2-13.2c0.2-4.9-1.7-9.7-5.2-13.2
				C51.9,31.7,47.3,29.9,42.4,30z"/>
		</g>
	</g>
</g>
</svg>
