<svg xmlns="http://www.w3.org/2000/svg" xmlns:xlink="http://www.w3.org/1999/xlink" viewBox="0 0 70.36 81.9"><defs><style>.cls-1{fill:url(#Dégradé_sans_nom_107);}</style><linearGradient id="Dégradé_sans_nom_107" x1="35.18" x2="35.18" y2="81.9" gradientUnits="userSpaceOnUse"><stop offset="0" stop-color="#75f1ed"/><stop offset="0.43" stop-color="#4cd4dc"/><stop offset="0.79" stop-color="#2fc0d0"/><stop offset="1" stop-color="#24b8cc"/></linearGradient></defs><title>Fichier 4</title><g id="Calque_2" data-name="Calque 2"><g id="Calque_1-2" data-name="Calque 1"><g id="Logo"><path class="cls-1" d="M60.12,21.85c-.6-.6-1.22-1.16-1.84-1.7l3.22-5.66,1.74,1L66.7,9.39,50.18,0,46.72,6.08l1.74,1L45.1,13a37.26,37.26,0,0,0-10-1.32A34,34,0,0,0,10.17,21.85,33.91,33.91,0,0,0,0,46.79,33.9,33.9,0,0,0,10.17,71.72,33.91,33.91,0,0,0,35.11,81.9a34.13,34.13,0,0,0,25-10.18A33.81,33.81,0,0,0,70.36,46.79,33.81,33.81,0,0,0,60.12,21.85ZM48,60a17.51,17.51,0,0,1-12.9,5.19A17.28,17.28,0,0,1,22.28,60a17.91,17.91,0,0,1-5.12-13.16,18,18,0,0,1,5.12-13.17,17.28,17.28,0,0,1,12.83-5.19A17.51,17.51,0,0,1,48,33.62,17.84,17.84,0,0,1,53.2,46.79,17.81,17.81,0,0,1,48,60Z"/></g></g></g></svg>