<svg id="drawing" xmlns="http://www.w3.org/2000/svg" width="733.671" height="745" viewBox="0 0 733.671 745">
  <g id="Groupe_5" data-name="Groupe 5" transform="translate(0 2.641)">
    <g id="Groupe_1" data-name="Groupe 1" transform="translate(11.934 496.15)">
      <path id="Tracé_6" data-name="Tracé 6" d="M476.907,683.785c3.163,10.88,5.793,13.7,10.574,18.567,3.584,3.652,22.939,15.963,24.314,19.525a8.044,8.044,0,0,1-3.145,9.933c-4.511,2.892-13.171,2.781-19.16,1.87-12.565-1.92-22.368-9.259-32.364-16.7-1.018,1.028-5.514-.5-9.72-2.961-3.433-2.015-5.168-3.733-5.6-6.977-.3-2.206.171-7.078.456-9.465.786-6.508,3.539-11.621,6.448-18.223l12.449-2.813Z" transform="translate(-441.707 -676.541)" fill="#324b4f" fill-rule="evenodd"/>
      <path id="Tracé_7" data-name="Tracé 7" d="M512.312,723.937a7.8,7.8,0,0,1-3.662,7.873c-4.511,2.887-13.171,2.776-19.16,1.87-12.565-1.92-22.368-9.259-32.364-16.7-1.018,1.033-5.514-.5-9.72-2.961-3.433-2.015-5.168-3.733-5.6-6.977a28.829,28.829,0,0,1,.025-4.932c1.577,4.806,11.636,9.577,16.475,9.758,10,7.435,19.842,14.356,32.407,16.27,5.985.912,14.649,1.023,19.16-1.864A8.357,8.357,0,0,0,512.312,723.937Z" transform="translate(-441.707 -676.541)" fill="#95b0b5" fill-rule="evenodd"/>
    </g>
    <g id="Groupe_2" data-name="Groupe 2" transform="translate(73.12 481.877)">
      <path id="Tracé_8" data-name="Tracé 8" d="M538.1,669.514c3.163,10.878,5.792,13.7,10.573,18.567,3.581,3.65,22.94,15.964,24.312,19.525a8.05,8.05,0,0,1-3.145,9.934c-4.509,2.886-13.17,2.775-19.157,1.868-12.566-1.918-22.371-9.263-32.368-16.7-1.015,1.028-5.513-.5-9.719-2.962-3.433-2.015-5.168-3.733-5.6-6.977-.3-2.206.171-7.077.458-9.465.783-6.508,3.539-11.624,6.446-18.222l12.449-2.816Z" transform="translate(-502.892 -662.268)" fill="#079da8" fill-rule="evenodd"/>
      <path id="Tracé_9" data-name="Tracé 9" d="M573.5,709.661a7.805,7.805,0,0,1-3.662,7.879c-4.509,2.886-13.17,2.775-19.16,1.868-12.563-1.918-22.368-9.263-32.365-16.7-1.015,1.028-5.513-.5-9.719-2.962-3.433-2.015-5.168-3.733-5.6-6.977a28.456,28.456,0,0,1,.028-4.931c1.574,4.8,11.633,9.571,16.471,9.757,10,7.435,19.842,14.356,32.408,16.27,5.987.912,14.651,1.023,19.16-1.868A8.2,8.2,0,0,0,573.5,709.661Z" transform="translate(-502.892 -662.268)" fill="#becbcc" fill-rule="evenodd"/>
    </g>
    <path id="Tracé_10" data-name="Tracé 10" d="M475.217,414.308c-3.11,14.636-6.846,27.32-7.966,42.1-2.111,27.837,28.538,73.7,30.322,103.895l-1.126,21.91c-2.3,22.739,1.771,52.086,7.208,88.78,5.967,13.578,36.992,16.157,40.435,12.344.637-.919-5.38-128.7-3.549-144.548,1.781-44.93-16.281-85.8-14.737-133.693Z" transform="translate(-429.773 -180.391)" fill="#0f218b" fill-rule="evenodd"/>
    <path id="Tracé_11" data-name="Tracé 11" d="M441.354,421.774c-2.665,23.617-8.269,34.888-3.668,60.185a685.432,685.432,0,0,1,9.534,79.2l-3.685,33c-2.3,22.739,2.766,53.509.811,88.493-4.221,15.787,35.9,26.043,40.15,16.9l8.679-147.536c1.781-44.93,3.194-80.678,4.738-128.573Z" transform="translate(-429.773 -180.391)" fill="#203092" fill-rule="evenodd"/>
    <path id="Tracé_12" data-name="Tracé 12" d="M524.772,355.84c3.637,10.865,18.446,12.021,26.237,8.641,4.753-2.06,7.341-13.409,8.042-19.174-2.252-18.351-16.127-81.519-25.653-90.556-11.236-10.662-31.493-11.788-35.112,18.643C496.668,286.95,515.617,329.706,524.772,355.84Z" transform="translate(-429.773 -180.391)" fill="#c8d8d9" fill-rule="evenodd"/>
    <path id="Tracé_13" data-name="Tracé 13" d="M432.11,301.722c-4.732,14.648-1.113,34.366.711,49.526,2.674,22.213,4.778,34.063,4.974,61.781.058,8.258-2.862,34.045-1.748,48.869,21.547,13.478,84.644-5.486,88.841-31.183L536.6,322.279c3.133-19.117,7.831-79.958-22.143-75.913-11.211,1.514-28.124.829-44.357,10.2C449.391,268.52,432.188,291.929,432.11,301.722Z" transform="translate(-429.773 -180.391)" fill="#dce7e8" fill-rule="evenodd"/>
    <path id="Tracé_14" data-name="Tracé 14" d="M453.745,393.318c10.247,13.807,33.489,3.453,33.529-7.5l-11.959-81.3c-3.591-27.114-53.186-32.113-40.233,21.065,4.242,17.407,12.19,39.76,16.074,60.449C451.633,388.56,452.169,391.192,453.745,393.318Z" transform="translate(-429.773 -180.391)" fill="#ebf4f5" fill-rule="evenodd"/>
    <path id="Tracé_15" data-name="Tracé 15" d="M472.928,231.139c1.005,8.037-.408,24.582-2.114,31.81-2.961,12.555,33.826,24.751,32.665,1.012a69.232,69.232,0,0,1,.567-10.419Z" transform="translate(-429.773 -180.391)" fill="#f0c17d" fill-rule="evenodd"/>
    <path id="Tracé_16" data-name="Tracé 16" d="M535.781,224.472c3.783,9.543,10.863,19.952,8.672,29.712-.816,3.642-3.756,6.891-1.955,14.686L526.431,273.7c-.5-5.216-.068-7.531-.584-9.7-.718-3.025-5.165-4.234-7.09-10.919-2.559-4.626-5.793-9.52-3.035-11.031,1.524-.834,3.327,1.617,4.692,3.362s2.285,2.889,3.743,4.685q.428-2.7.854-5.4-1.851-4.836-3.7-9.667l-3.128-10.521c-.587-2.153,4-5.02,7.7-6.05C532.741,216.555,534.025,220.039,535.781,224.472Z" transform="translate(-429.773 -180.391)" fill="#f0c17d" fill-rule="evenodd"/>
    <g id="Groupe_3" data-name="Groupe 3" transform="translate(37.105 76.41)">
      <path id="Tracé_17" data-name="Tracé 17" d="M470.908,256.8c5.387,11.455,16.328,17.935,22.678,20.945l-5.028,14.077c-15.741-11.009-18.807-17.978-21.68-24.293Z" transform="translate(-466.878 -256.801)" fill="#ebf4f5" fill-rule="evenodd"/>
      <path id="Tracé_18" data-name="Tracé 18" d="M503.884,261.672c-1.679,6.272-5.291,9.641-10.585,15.928q3.588,6.109,7.183,12.211c5.148-9.294,5.893-12.533,4.523-21.709Z" transform="translate(-466.878 -256.801)" fill="#ebf4f5" fill-rule="evenodd"/>
    </g>
    <g id="Groupe_4" data-name="Groupe 4" transform="translate(33.834)">
      <path id="Tracé_19" data-name="Tracé 19" d="M525.144,223.036c.205,11.024-9.074,38.81-17.449,45.008-1.848,1.373-6.347,2.171-8.762,1.922-4.816-.494-15.994-10.973-18.7-14.084-4.38-5.045-4.516-8.722-6.09-18.588l-2.851-8.239,1.317-27.533c16.039-5.814,30.216-9.864,38.052-7.38C518.54,196.635,524.769,202.841,525.144,223.036Z" transform="translate(-463.607 -180.391)" fill="#ffdba7" fill-rule="evenodd"/>
      <path id="Tracé_20" data-name="Tracé 20" d="M531.323,227.144c-1.68-5.627,3.186-17.359-7.186-28.343a28.666,28.666,0,0,1,4.856,4.627c-1.2-6.2-2.08-9.586-9.772-12.16a51.164,51.164,0,0,1,5.127,1.41c-4.73-10.273-27.881-16.746-40.673-8.608-13.077,3.607-20.553,14.679-20.044,25.972.365,8.166,3.577,18.245,7.294,26.61a24.78,24.78,0,0,1,2.363,8.228l1.138-8.868c-3.249-6.032-1.856-14.429,2.592-15.606,6.493-1.72,6.82,3.615,6.82,14.3,4.607-10.312,4.725-11.022,12.188-19.767C503.829,213.294,519.744,230.768,531.323,227.144Z" transform="translate(-463.607 -180.391)" fill="#261505" fill-rule="evenodd"/>
    </g>
    <path id="Tracé_21" data-name="Tracé 21" d="M494.2,353.069l37.984-14.557c8.695,1.022,14.817,10.852,11.9,19.338-23.688,15.424-45.43,31.39-64.289,38.707-10.873,4.218-13.848,6.752-21.22-5.023-5.854-9.344,8.43-24.355,18.933-30.412A128.541,128.541,0,0,1,494.2,353.069Z" transform="translate(-429.773 -180.391)" fill="#ebf4f5" fill-rule="evenodd"/>
    <path id="Tracé_22" data-name="Tracé 22" d="M527.144,318.5l-3.516-51.879c3.385-5.37,16.278-7.4,20.086-2.735,5.121,27.224,16.281,50.214,15.714,70.147-.327,11.488,1.356,29.272-12.573,31.916-11.047,2.1-16.074-15.761-17.6-27.557C528.582,333.257,527.545,324.437,527.144,318.5Z" transform="translate(-429.773 -180.391)" fill="#c8d8d9" fill-rule="evenodd"/>
  </g>
  <path id="Tracé_23" data-name="Tracé 23" d="M937.9,269.268c-6.267,15.289-12.992,47.293-12.981,68.468,0,13.913,16.023,20.222,21.041,8.211,8.331-19.94,20.32-52.061,16.214-69.775C958.551,260.544,942.18,258.826,937.9,269.268Z" transform="translate(-429.773 -177.75)" fill="#079da8" fill-rule="evenodd"/>
  <g id="Groupe_6" data-name="Groupe 6" transform="translate(500.469)">
    <path id="Tracé_24" data-name="Tracé 24" d="M993.218,595.208a58.838,58.838,0,0,1,5.908,22.57c1.023,16.024-1.234,32.647,4.363,33.463,6.251.912,11-5.073,14.366-9.422,7.783-10.047,10.468-23.925,12.583-36.2,1.6-1.524,2.1-4.808,3.441-9.491,1.1-3.825,1.169-6.266-.751-8.918a29.232,29.232,0,0,0-5.3-5.9c-9.924-7.311-17.011-4.327-21.273-6.319l-6.916,4.108Z" transform="translate(-930.242 -177.75)" fill="#95b0b5" fill-rule="evenodd"/>
    <path id="Tracé_25" data-name="Tracé 25" d="M1002.582,650.934a2.663,2.663,0,0,0,.907.307c6.251.912,11-5.073,14.366-9.422,7.783-10.047,10.468-23.925,12.583-36.2,1.6-1.522,2.1-4.806,3.441-9.489,1.1-3.825,1.173-6.268-.746-8.918a29.289,29.289,0,0,0-5.309-5.9,28.729,28.729,0,0,0-5.309-3.14,42.116,42.116,0,0,1,3.375,4.156c4.181,5.77-.57,18.222-1.819,24.5-2.206,11.124-5.752,22.935-10.991,32.944C1011.009,643.725,1007.292,649.3,1002.582,650.934Z" transform="translate(-930.242 -177.75)" fill="#324b4f" fill-rule="evenodd"/>
    <path id="Tracé_26" data-name="Tracé 26" d="M985.863,593.828c.161-2.231,6.352-6.4,11.868-5.123,7.244,1.67,5.934,20.845,3.526,30.577C998,607.855,985.51,598.7,985.863,593.828Z" transform="translate(-930.242 -177.75)" fill="#fdca01" fill-rule="evenodd"/>
    <path id="Tracé_27" data-name="Tracé 27" d="M978.715,632.585A58.677,58.677,0,0,1,967.432,653c-10.3,12.314-23.4,22.8-19.908,27.249,3.9,4.97,11.46,3.905,16.905,3.078,12.563-1.911,24.074-10.112,34.073-17.55,2.206.005,4.83-2.035,9.032-4.5,3.435-2.012,5.173-3.732,5.606-6.976a29.306,29.306,0,0,0,.227-7.932c-2.146-12.138-9.339-14.86-11.052-19.243l-7.843-1.793Z" transform="translate(-930.242 -177.75)" fill="#95b0b5" fill-rule="evenodd"/>
    <path id="Tracé_28" data-name="Tracé 28" d="M947.081,679.405a2.714,2.714,0,0,0,.443.848c3.9,4.97,11.46,3.905,16.905,3.078,12.563-1.911,24.074-10.112,34.073-17.55,2.206.005,4.83-2.035,9.032-4.5,3.435-2.012,5.173-3.732,5.606-6.976a29.306,29.306,0,0,0,.227-7.932,28.87,28.87,0,0,0-1.682-5.936,42.026,42.026,0,0,1-.419,5.339c-.952,7.06-12.981,12.8-18.21,16.492-9.268,6.536-19.983,12.644-30.677,16.283C958.153,679.991,951.615,681.468,947.081,679.405Z" transform="translate(-930.242 -177.75)" fill="#324b4f" fill-rule="evenodd"/>
    <path id="Tracé_29" data-name="Tracé 29" d="M986.815,266.876c19.661,6.294,31.579,15.069,26.622,19.6s-24.909,3.093-44.565-3.2S937.283,268.2,942.24,263.675,967.15,260.582,986.815,266.876Z" transform="translate(-930.242 -177.75)" fill="#c6def2" fill-rule="evenodd"/>
    <path id="Tracé_30" data-name="Tracé 30" d="M938.5,489.334,989.173,593.76l.02.015a1.287,1.287,0,0,0,1.289.736c2.776-.126,8.191-6.4,12.1-14,3.093-6.027,4.307-11.082,3.3-12.858-6.357-22.569-13.57-48.676-26.632-68.447-4.624-7-6.256-6.009-10.8-11.855C957,472.651,937.238,477.076,938.5,489.334Z" transform="translate(-930.242 -177.75)" fill="#365a78" fill-rule="evenodd"/>
    <path id="Tracé_31" data-name="Tracé 31" d="M938.774,485.481c-3.455,10.953,19.827,21.8,31.166,6.873l55.526-95.969-53.743-39.916c-6.412,19.064-8.649,23.069-13.787,43.168C950.834,427.39,943.575,461.924,938.774,485.481Z" transform="translate(-930.242 -177.75)" fill="#365a78" fill-rule="evenodd"/>
    <path id="Tracé_32" data-name="Tracé 32" d="M995.374,376.5l-4.091-.2-2.876,22.164C978.72,422.5,979.9,477,980.136,499.464c.04,3.385-.005,6.853-.056,9.569-.327,18.431,27.942,11.731,31.4,1.982,6.1-17.213,7.838-25.288,13.072-45.162,8.946-33.99,28.909-61.169-6.1-91.408Z" transform="translate(-930.242 -177.75)" fill="#0f218b" fill-rule="evenodd"/>
    <path id="Tracé_33" data-name="Tracé 33" d="M980.393,510.017l-2.987,132.169.015.023a1.278,1.278,0,0,0,.836,1.229c2.548,1.106,11.7-.267,18.552-5.379,5.43-4.051,7.214-9.934,7.088-11.972,4.952-27.06,11.974-59,11.338-78.895-.614-19.242-3.077-29.407-2.971-37.62C1012.495,490.946,980.76,474.98,980.393,510.017Z" transform="translate(-930.242 -177.75)" fill="#406a8c" fill-rule="evenodd"/>
    <path id="Tracé_34" data-name="Tracé 34" d="M954.486,181.924c-11.253,1.579-18.881,4.805-21.515,10.631-11.611,25.67,18.175,77.917,8.765,98.719l26.763-7.291,7.159-71.453Z" transform="translate(-930.242 -177.75)" fill-rule="evenodd"/>
    <path id="Tracé_35" data-name="Tracé 35" d="M975.3,230.124c.337,5.483-1.824,18.653,6.755,30.848l-15.837,18.572-10.881-6.53c-.046-11.951-.992-18.984-5.476-28.711Z" transform="translate(-930.242 -177.75)" fill="#f0c17d" fill-rule="evenodd"/>
    <path id="Tracé_36" data-name="Tracé 36" d="M981.012,257.194c6.523,8.538,12.709,12.606,22.089,15.734,17.354,5.785,12.664,36.3,9.258,56.572a66.584,66.584,0,0,0,.57,26.224c.947,4.425,1.516,7.964,4.543,11.553,12.261,14.507,23.232,33.453,22.29,47.019l-.382-.039a3.707,3.707,0,0,1-1.159,1.826c-5.566,5.089-28.017,3.479-50.127-3.6-20.23-6.473-33.17-15.28-30.964-20.632.932-10.443,1.315-26.414-.05-30.854-1.259-4.09-8.322-23.386-14.125-32.627a35.969,35.969,0,0,1-11.611-20.23c-1.224-6.7,6.408-35.266,10.181-42.9,1.571-3.188,8.195-3.218,12.83-2.415C954.36,271.011,974.836,273.741,981.012,257.194Z" transform="translate(-930.242 -177.75)" fill="#24b8cc" fill-rule="evenodd"/>
    <path id="Tracé_37" data-name="Tracé 37" d="M936.7,192.91c-7.4,17.833-.554,27.613.614,40.674.615,6.916,3.617,12.024,5.949,15.641,3.33,5.166,6.534,7.337,10.015,7.692,6.669.675,30.626-16.031,30.848-25.03l.847-34.844Z" transform="translate(-930.242 -177.75)" fill="#ffdba7" fill-rule="evenodd"/>
    <path id="Tracé_38" data-name="Tracé 38" d="M971.728,252.292c3.093,15.324,1.617,37.1-.917,44.193,13.611-4.526,25.066-17.59,26.986-34.823,1.36-12.233-.62-37.848-3.189-52.285-3.778-21.24-18.724-38.664-45.508-28.79-6,1.778-14.668,6.409-15.338,16.348C931.531,229.939,972.927,221.27,971.728,252.292Z" transform="translate(-930.242 -177.75)" fill="#121111" fill-rule="evenodd"/>
    <path id="Tracé_39" data-name="Tracé 39" d="M972.978,625.83c1.652-1.5,9.011-.254,12.129,4.473,4.091,6.2-10.074,19.19-18.532,24.578C972.1,644.362,969.361,629.112,972.978,625.83Z" transform="translate(-930.242 -177.75)" fill="#324b4f" fill-rule="evenodd"/>
  </g>
  <g id="Groupe_10" data-name="Groupe 10" transform="translate(270.252 70.565)">
    <path id="Tracé_40" data-name="Tracé 40" d="M806.089,313.715c7.372,8.788,1.053,72.374.158,85.415-1.629,3.026-7.866,8.4-17.774,7.242a13.278,13.278,0,0,1-2.562-6.932c-1.889-18.177.411-52-.085-70.28Z" transform="translate(-700.025 -248.315)" fill="#c8d8d9" fill-rule="evenodd"/>
    <path id="Tracé_41" data-name="Tracé 41" d="M747.772,269.918c-2.66,13.12-1.192,25.925-2.678,35.194-1.831,11.4-9.059,17.418-13.117,23.909-12.221,19.548,60.2-16.663,59.979-17.648-3.82-17.2-17.957-26.456-31.221-36C760.735,275.376,747.6,270.087,747.772,269.918Z" transform="translate(-700.025 -248.315)" fill="#290f01" fill-rule="evenodd"/>
    <g id="Groupe_9" data-name="Groupe 9" transform="translate(0 142.398)">
      <g id="Groupe_8" data-name="Groupe 8" transform="translate(7.431 16.825)">
        <path id="Tracé_42" data-name="Tracé 42" d="M769.868,408.908h4.108l-.685,37.654c1.113,21.812,5.077,64.687,5.739,86.322.426,13.9-3.1,20.809-2.659,31.166,1.249,29.438-2.6,58.284-3.08,88.66l-13.352,12.835C753.68,619.753,743.8,594.76,744.878,568.5c1.793-43.751-.018-43.089-4.723-70.4-7.251-42.1-2.078-12.208-.655-28.952,1.088-12.795,3.421-29.132,13.936-61.607Z" transform="translate(-707.456 -407.538)" fill="#f0c17d" fill-rule="evenodd"/>
        <path id="Tracé_43" data-name="Tracé 43" d="M740.944,430.76h4.105l-.685,37.654c1.113,21.812,5.08,64.687,5.74,86.322.426,13.9-3.1,20.809-2.657,31.163,1.249,29.443-2.6,58.287-3.081,88.662L731.015,687.4c-6.259-45.791-16.137-70.784-15.062-97.046,1.794-43.752-.017-43.089-4.722-70.4-7.252-42.1-2.081-12.208-.655-28.952,1.088-12.8,3.417-29.133,13.936-61.606Z" transform="translate(-707.456 -407.538)" fill="#ffdba7" fill-rule="evenodd"/>
        <path id="Tracé_44" data-name="Tracé 44" d="M744.555,661.825c-.327,8.412,1.325,12.8,2.393,15.678,2.637,7.118,15.142,15.837,20.361,21.016l-1.7,6.962-6.417.286-8.3-.685c-4.5-3.712-9.014-8.407-12.022-10.85-11.676-9.485-15.461-10.2-12.852-17.167.984-2.63,2.763-14.185-.283-27.489Z" transform="translate(-707.456 -407.538)" fill="#ffdba7" fill-rule="evenodd"/>
        <path id="Tracé_45" data-name="Tracé 45" d="M763.206,694.892c1.048,1.411,2.088,3,2.131,4.413.058,1.964-1.851,3.38-6.02,3.7-5.025.388-13.261-5.536-18.626-10.991-5.634-5.733-11.172-10.778-14.1-17.606-3.43,4.09-4.5,8.869-3.249,15.276l.939,7.165,7.871,4.212,3.348-1.295.251-2.383c4.164,2.861,9.166,9.612,12.584,11.491,8.311,4.563,14.248,4.3,18.656,4.241,3.229-.04,6.724-2.312,6.253-5.788C772.454,701.526,765.808,696.595,763.206,694.892Z" transform="translate(-707.456 -407.538)" fill="#05345e" fill-rule="evenodd"/>
        <g id="Groupe_7" data-name="Groupe 7" transform="translate(44.122 226.088)">
          <path id="Tracé_46" data-name="Tracé 46" d="M773.3,645.874c-.327,8.412,1.322,12.8,2.391,15.678,2.636,7.118,15.144,15.84,20.363,21.014l-1.705,6.964-6.415.289-8.3-.69c-4.5-3.707-9.014-8.405-12.021-10.848-11.68-9.485-15.462-10.2-12.856-17.167.985-2.629,2.766-14.185-.279-27.488Z" transform="translate(-751.578 -633.626)" fill="#f0c17d" fill-rule="evenodd"/>
          <path id="Tracé_47" data-name="Tracé 47" d="M791.951,678.939c1.048,1.413,2.091,3,2.131,4.415.058,1.965-1.849,3.378-6.02,3.7-5.022.386-13.258-5.535-18.622-10.991-5.637-5.733-11.176-10.777-14.1-17.6-3.433,4.09-4.5,8.868-3.252,15.275l.942,7.164,7.871,4.215,3.347-1.3.253-2.383c4.16,2.864,9.162,9.614,12.582,11.493,8.312,4.566,14.249,4.3,18.654,4.239,3.229-.04,6.727-2.313,6.256-5.783C801.2,685.576,794.556,680.644,791.951,678.939Z" transform="translate(-751.578 -633.626)" fill="#042847" fill-rule="evenodd"/>
        </g>
      </g>
      <path id="Tracé_48" data-name="Tracé 48" d="M700.025,461.2c.025,24.126,8.612,52.416,12.334,88.806.015,2.954,1.529,5.521,4.7,7.362,9.594,5.576,30.7,2.4,47.144-7.1,11.8-6.813,17.994-15.029,17.007-21.186l.005-.031c6.433-85.38,4.742-95.477-.892-113.186-3.179-9.986-9.48-20.383-9.072-25.154-19.585,20.976-40.913,2.489-55.179,14.765C710.112,427.131,700,429.753,700.025,461.2Z" transform="translate(-700.025 -390.713)" fill="#0f218b" fill-rule="evenodd"/>
    </g>
    <path id="Tracé_49" data-name="Tracé 49" d="M744.306,318.289c-10.458,6.04-19.427,14.21-21.331,26.914a358.475,358.475,0,0,0-3.6,49.958c-.012,64.183,70.521-11.568,70.659-11.654,5.43-3.3,13.457-4.934,17.862-13.611,6.473-12.757,2.65-31.321,1.124-49.343.191-3.934-1.678-7.359-5.841-9.777C791.226,303.832,764.79,306.462,744.306,318.289Z" transform="translate(-700.025 -248.315)" fill="#dce7e8" fill-rule="evenodd"/>
    <path id="Tracé_50" data-name="Tracé 50" d="M809.018,320.553c1.526,18.022,5.349,36.586-1.124,49.343-4.4,8.677-12.432,10.312-17.862,13.611-5.3,3.219-10.8,12.652-16.266,36.141L710.714,447.8c-9.032-19.814,4.675-32.619,8.659-52.64.263-1.312.494-2.624.706-3.934,8.75,3.325,19.2-1.579,22.857-13.787,9.014-30.058,5.065-49.515-7.76-53.129,5.095-4.02,9.289-7.266,16.079-9.666,15.2,13.948,28.984,35.183,32.924,55.4,12.182-20.318,13.615-41.7,9.321-62.475a28.555,28.555,0,0,1,9.677,3.2C807.34,313.194,809.209,316.619,809.018,320.553Z" transform="translate(-700.025 -248.315)" fill="#0f218b" fill-rule="evenodd"/>
    <path id="Tracé_51" data-name="Tracé 51" d="M761.571,291.586c-.312,5.912-.856,18.434-1.886,22.645-.4,13.423,18.064,20.983,26.483,10.81l3.438-20.554Z" transform="translate(-700.025 -248.315)" fill="#f0c17d" fill-rule="evenodd"/>
    <path id="Tracé_52" data-name="Tracé 52" d="M792.626,252.965c22.86,9.732,13.923,53.547-3.186,60.9l-21.451-8.25-3.582-20.844,11.644-21.287Z" transform="translate(-700.025 -248.315)" fill="#290f01" fill-rule="evenodd"/>
    <path id="Tracé_53" data-name="Tracé 53" d="M802,277.4c1.436,5.118,1.23,14.021-1.8,23.572a51.575,51.575,0,0,1-5.115,11.876c-1.859,3.2-5.174,6.893-8.037,7.117-5.557.431-18.153-8.339-20.344-9.976-3.511-2.617-5.395-4.761-5.42-7.868l-.025-2.907c-2.045-1.295-4.239-1.174-6.128-3.889s-3.979-4.984-4.718-11.677c-1.889-17.116,7.393-24.524,17.455-27.218C781.093,252.892,796.845,259.03,802,277.4Z" transform="translate(-700.025 -248.315)" fill="#ffdba7" fill-rule="evenodd"/>
    <path id="Tracé_54" data-name="Tracé 54" d="M763.1,299.137c-.995-2.208-1.549-5.856-2.182-8.888-.735-3.519-1.815-6.68-6.112-6.685-2.468,0-3.947,3.451-1.119,10.07-13.371-13.449-5.4-40.029,13.468-44.333,17.65-4.028,38.283,4.472,28.458,22.043-4.8,8.578-15.852,11.923-26.625,16.91C766.994,289.178,763.344,295.614,763.1,299.137Z" transform="translate(-700.025 -248.315)" fill="#290f01" fill-rule="evenodd"/>
    <path id="Tracé_55" data-name="Tracé 55" d="M790.8,289.657a27.047,27.047,0,0,1,5.665-1.9v0l1.126-.29h0a24.035,24.035,0,0,1,2.657-.592,5.047,5.047,0,0,1,2.4.111c1.489.554,1.169,2.126.849,3.715l-.073.363a12.831,12.831,0,0,1-1.405,3.768,7.09,7.09,0,0,1-2.244,2.564,8.627,8.627,0,0,1-2.292.932h0a22.355,22.355,0,0,1-2.259.453l-.008,0-.043.005v0a5.751,5.751,0,0,1-4.992-1.123,5.921,5.921,0,0,1-1.763-3.5l0-.013-.005-.035a4.077,4.077,0,0,1,.254-2.552,4.66,4.66,0,0,1,2.133-1.914Zm5.977-.642a26.053,26.053,0,0,0-5.385,1.793,3.465,3.465,0,0,0-1.584,1.355,2.908,2.908,0,0,0-.134,1.771l0,.008.005.035a4.659,4.659,0,0,0,1.345,2.725,4.559,4.559,0,0,0,3.944.811h.005l.038-.008h0c.665-.108,1.405-.236,2.143-.433h0a7.38,7.38,0,0,0,1.952-.784,5.869,5.869,0,0,0,1.8-2.1,11.479,11.479,0,0,0,1.259-3.38V290.8l.073-.363c.209-1.04.418-2.07-.027-2.236a3.994,3.994,0,0,0-1.789-.045,22.459,22.459,0,0,0-2.5.561h0l-1.149.3Z" transform="translate(-700.025 -248.315)" fill-rule="evenodd"/>
    <path id="Tracé_56" data-name="Tracé 56" d="M781.819,291.564a40.86,40.86,0,0,0-9.342.685,4.2,4.2,0,0,0-1.8.712c-.73.625-.05,1.937.768,3.141a16.665,16.665,0,0,0,1.99,2.468c1.673,1.421,2.753,1.436,4.838,1.239,2.1-.191,5.028-.357,6.106-2.38a5.044,5.044,0,0,0,.352-3.284v0l-.007-.04a3.127,3.127,0,0,0-.791-1.746,3.788,3.788,0,0,0-2.118-.79Zm.163-1.282A4.913,4.913,0,0,1,784.8,291.4a4.306,4.306,0,0,1,1.181,2.461l0,.007.005.033h0a6.305,6.305,0,0,1-.489,4.143c-1.319,2.481-4.531,2.818-7.107,3.053-2.433.224-3.858.085-5.768-1.536a13.785,13.785,0,0,1-2.478-2.887c-1.055-1.657-1.65-3.551-.3-4.71a5.383,5.383,0,0,1,2.358-.992A42.081,42.081,0,0,1,781.982,290.282Z" transform="translate(-700.025 -248.315)" fill-rule="evenodd"/>
    <rect id="Rectangle_3" data-name="Rectangle 3" width="3.49" height="1.947" transform="translate(85.377 44.466) rotate(-7.263)"/>
    <path id="Tracé_57" data-name="Tracé 57" d="M770.142,293.606l-4.113-2.118-.952,1.627,4.594,2.368Z" transform="translate(-700.025 -248.315)" fill-rule="evenodd"/>
  </g>
  <path id="Tracé_58" data-name="Tracé 58" d="M732.511,513.866c.224,12.978-19.832,18.932-21.61,13.079q-27.432-22.895-54.308-46.346l12.513-31.843C697.59,459.276,715.558,489.958,732.511,513.866Z" transform="translate(-429.773 -177.75)" fill="#c8d8d9" fill-rule="evenodd"/>
  <g id="Groupe_19" data-name="Groupe 19" transform="translate(109.654 262.304)">
    <g id="Groupe_18" data-name="Groupe 18" transform="translate(0 27.413)">
      <path id="Tracé_59" data-name="Tracé 59" d="M726.388,755.2c2.224,9.7,24.99,27.71,29.463,32.662,2.834,3.133,1.1,10.84-3.143,13.555-4.511,2.882-12.17,2.751-18.157,1.834-6.932-1.058-15.13-8.357-24.28-14.089s-20.439-9.647-20.436-14.891c.478-7.153,2.451-12.6,3.916-22.894l13.211,3.546Z" transform="translate(-539.427 -467.467)" fill="#48453e" fill-rule="evenodd"/>
      <g id="Groupe_16" data-name="Groupe 16">
        <g id="Groupe_11" data-name="Groupe 11" transform="translate(47.104 242.43)">
          <path id="Tracé_60" data-name="Tracé 60" d="M586.532,743.457a1.959,1.959,0,0,0,.1.589.283.283,0,0,0,.02.06,2.153,2.153,0,0,0,.27.535c.022.035.043.065.065.1a3.263,3.263,0,0,0,.454.5,4.738,4.738,0,0,0,.4.292,3.382,3.382,0,0,0,.356.252l45.169,26.255.02,7.228-45.169-26.249a.424.424,0,0,1-.068-.04c-.111-.066-.192-.147-.29-.212-.136-.1-.28-.192-.4-.292-.011-.01-.028-.021-.038-.031a3.142,3.142,0,0,1-.353-.383c-.025-.029-.04-.06-.063-.09s-.042-.061-.065-.1c-.033-.05-.073-.1-.1-.151a2.814,2.814,0,0,1-.154-.327c-.005-.021-.008-.036-.012-.051s-.013-.045-.021-.065c-.02-.071-.045-.141-.06-.207a2.338,2.338,0,0,1-.038-.332v-.051h0Z" transform="translate(-586.532 -709.897)" fill="#1f4351" fill-rule="evenodd"/>
          <path id="Tracé_61" data-name="Tracé 61" d="M635.107,772.709c.091.025.181.045.274.07a9.48,9.48,0,0,0,1.975.222h.076a9.5,9.5,0,0,0,2.082-.232c.026-.005.051-.015.076-.02a6.861,6.861,0,0,0,1.864-.71l52.375-30.244a2.85,2.85,0,0,0,1.681-2.358l.02,7.234a2.848,2.848,0,0,1-1.68,2.357l-52.376,30.239a6.612,6.612,0,0,1-.824.4c-.221.086-.453.166-.69.232-.116.035-.234.055-.35.085a.319.319,0,0,1-.075.02c-.058.011-.114.031-.172.041-.186.04-.375.07-.569.1s-.37.045-.557.06-.375.025-.564.03h-.589c-.212-.01-.426-.025-.637-.045-.245-.025-.492-.055-.733-.1-.106-.02-.207-.055-.313-.08a2.612,2.612,0,0,1-.274-.066c-.164-.045-.337-.075-.5-.126a6.14,6.14,0,0,1-1.25-.549l-.02-7.228A6.753,6.753,0,0,0,635.107,772.709Z" transform="translate(-586.532 -709.897)" fill="#294f5e" fill-rule="evenodd"/>
          <path id="Tracé_62" data-name="Tracé 62" d="M588.217,741.1c-2.247,1.3-2.239,3.4-.025,4.685l45.169,26.255a8.952,8.952,0,0,0,8.093,0l52.375-30.244c2.229-1.285,2.242-3.4.028-4.685l-45.172-26.25a8.981,8.981,0,0,0-8.092,0Z" transform="translate(-586.532 -709.897)" fill="#376375" fill-rule="evenodd"/>
        </g>
        <g id="Groupe_12" data-name="Groupe 12" transform="translate(92.337 146.533)">
          <path id="Tracé_63" data-name="Tracé 63" d="M640.907,619.387l-1.657,35.3,1.771,94.183,9.332-5.39L650.239,614Z" transform="translate(-631.764 -614)" fill="#041d33" fill-rule="evenodd"/>
          <path id="Tracé_64" data-name="Tracé 64" d="M640.907,619.387l-9.143-5.309.116,129.474,9.14,5.315Z" transform="translate(-631.764 -614)" fill="#08355c" fill-rule="evenodd"/>
        </g>
        <g id="Groupe_13" data-name="Groupe 13" transform="translate(49.502 39.329)">
          <path id="Tracé_65" data-name="Tracé 65" d="M679.292,662.167l7.425-4.312.018-5.725-7.428,4.32Z" transform="translate(-588.929 -506.796)" fill="#367c83" fill-rule="evenodd"/>
          <path id="Tracé_66" data-name="Tracé 66" d="M594.083,593.962a19.933,19.933,0,0,1-.174-2.69l7.425-4.312a21.246,21.246,0,0,0,.254,3.15c.025.164.058.328.086.5a26.494,26.494,0,0,0,.7,3c.028.1.058.192.088.287a30.432,30.432,0,0,0,1.2,3.254.456.456,0,0,1,.028.063,33.88,33.88,0,0,0,1.626,3.216c.021.033.036.063.054.091a33.107,33.107,0,0,0,1.926,2.95c.063.085.126.171.192.259a30.273,30.273,0,0,0,2.012,2.423c.151.169.3.328.461.491.554.579,1.141,1.106,1.73,1.62.27.231.527.486.8.705a21.085,21.085,0,0,0,2.587,1.793l-7.425,4.317a21.216,21.216,0,0,1-2.584-1.793c-.278-.222-.537-.471-.806-.711-.4-.347-.814-.672-1.2-1.055-.179-.176-.35-.375-.526-.559-.156-.164-.31-.327-.464-.5s-.347-.358-.516-.549q-.574-.661-1.121-1.365c-.128-.164-.249-.338-.372-.5-.066-.088-.129-.174-.192-.265-.118-.16-.242-.314-.358-.478-.271-.39-.539-.791-.8-1.2-.247-.386-.483-.774-.715-1.169-.021-.033-.038-.068-.056-.1s-.032-.063-.05-.095c-.186-.32-.37-.642-.541-.97-.21-.391-.408-.781-.6-1.179-.169-.353-.33-.707-.486-1.068a.312.312,0,0,1-.03-.063c-.01-.023-.023-.045-.031-.068-.178-.41-.35-.823-.508-1.239-.167-.431-.322-.867-.466-1.3-.073-.215-.131-.429-.2-.645-.03-.094-.058-.184-.086-.275-.047-.164-.1-.322-.148-.486-.146-.526-.275-1.055-.388-1.579-.068-.318-.108-.627-.161-.945-.03-.166-.06-.327-.086-.5C594.141,594.269,594.1,594.115,594.083,593.962Z" transform="translate(-588.929 -506.796)" fill="#041d33" fill-rule="evenodd"/>
          <path id="Tracé_67" data-name="Tracé 67" d="M593.909,591.272l7.425-4.312.219-77.293-7.427,4.317Z" transform="translate(-588.929 -506.796)" fill="#041d33" fill-rule="evenodd"/>
          <path id="Tracé_68" data-name="Tracé 68" d="M594.126,513.984l7.427-4.317-4.979-2.871-7.425,4.314Z" transform="translate(-588.929 -506.796)" fill="#46aab4" fill-rule="evenodd"/>
          <path id="Tracé_69" data-name="Tracé 69" d="M615.076,610.761l71.656,41.369-7.425,4.32-71.656-41.372Z" transform="translate(-588.929 -506.796)" fill="#46aab4" fill-rule="evenodd"/>
          <path id="Tracé_70" data-name="Tracé 70" d="M589.149,511.11l4.977,2.874-.217,77.288c-.025,8.734,6.143,19.416,13.742,23.806l71.656,41.372-.015,5.717L607.636,620.8c-10.36-5.977-18.739-20.495-18.707-32.4Z" transform="translate(-588.929 -506.796)" fill="#08355c" fill-rule="evenodd"/>
        </g>
        <g id="Groupe_14" data-name="Groupe 14" transform="translate(23.736 106.21)">
          <path id="Tracé_71" data-name="Tracé 71" d="M563.164,625.306a3.139,3.139,0,0,0,.151.907c.01.033.017.063.028.1a3.511,3.511,0,0,0,.417.818l.1.151a5.106,5.106,0,0,0,.7.769,7.2,7.2,0,0,0,.612.456c.181.125.337.267.546.385L635.2,669.272l.033,11.123-69.487-40.38c-.038-.022-.071-.04-.106-.063-.171-.106-.292-.224-.446-.327a7.479,7.479,0,0,1-.607-.451c-.017-.018-.04-.027-.055-.048a4.39,4.39,0,0,1-.547-.584c-.035-.045-.063-.093-.1-.141s-.065-.1-.1-.146c-.051-.078-.114-.159-.159-.237a3.694,3.694,0,0,1-.234-.506.753.753,0,0,1-.023-.076,1.025,1.025,0,0,1-.027-.1,2.465,2.465,0,0,1-.094-.317,2.8,2.8,0,0,1-.057-.511v-.078Z" transform="translate(-563.163 -573.677)" fill="#1f4351" fill-rule="evenodd"/>
          <path id="Tracé_72" data-name="Tracé 72" d="M637.888,670.3c.14.035.279.073.423.1a14.645,14.645,0,0,0,3.037.348c.038,0,.078,0,.118,0a14.751,14.751,0,0,0,3.2-.36c.037-.011.077-.018.118-.028a10.816,10.816,0,0,0,2.866-1.1l80.572-46.522c1.725-.995,2.587-2.31,2.584-3.629l.031,11.127c0,1.315-.859,2.634-2.582,3.629L647.683,680.4a10.28,10.28,0,0,1-1.265.609c-.345.131-.7.255-1.068.358-.174.05-.355.088-.534.133l-.115.028c-.089.017-.177.045-.265.063-.29.06-.579.111-.874.151s-.569.073-.857.1-.579.038-.871.048c-.111,0-.224-.005-.337-.005h-.116c-.151,0-.3.005-.451,0-.328-.015-.655-.033-.98-.068-.38-.038-.758-.088-1.128-.156-.164-.033-.318-.086-.481-.118-.147-.031-.28-.068-.421-.1-.254-.07-.521-.113-.765-.191a9.8,9.8,0,0,1-1.92-.846l-.033-11.123A10.588,10.588,0,0,0,637.888,670.3Z" transform="translate(-563.163 -573.677)" fill="#294f5e" fill-rule="evenodd"/>
          <path id="Tracé_73" data-name="Tracé 73" d="M565.756,621.677c-3.456,2-3.446,5.231-.039,7.211L635.2,669.272a13.758,13.758,0,0,0,12.45,0l80.572-46.522c3.428-1.977,3.446-5.231.04-7.209L658.777,575.16a13.8,13.8,0,0,0-12.447,0Z" transform="translate(-563.163 -573.677)" fill="#376375" fill-rule="evenodd"/>
        </g>
        <g id="Groupe_15" data-name="Groupe 15">
          <path id="Tracé_74" data-name="Tracé 74" d="M549.047,531.2l.123,56.183a6.948,6.948,0,0,0,.126,1.34.164.164,0,0,1,.007.033,4.823,4.823,0,0,0,.356,1.1.06.06,0,0,0,.007.016,3.62,3.62,0,0,0,.365.569,3.3,3.3,0,0,0,.965.941l-9.619-5.591a3.153,3.153,0,0,1-.964-.942c-.036-.05-.091-.068-.121-.118a3.474,3.474,0,0,1-.237-.428c-.005-.008-.005-.016-.007-.018a.038.038,0,0,1-.008-.018c-.048-.1-.094-.209-.136-.325a3.376,3.376,0,0,1-.108-.327c-.031-.1-.058-.209-.084-.318-.01-.042-.017-.09-.027-.13,0-.016-.005-.025-.008-.038-.008-.046-.017-.091-.025-.136-.018-.1-.033-.2-.046-.295s-.022-.2-.032-.3-.013-.191-.018-.292-.005-.2-.005-.3v-.02l-.123-56.182Z" transform="translate(-539.427 -467.467)" fill="#1f4351" fill-rule="evenodd"/>
          <path id="Tracé_75" data-name="Tracé 75" d="M552.85,522.374a.087.087,0,0,0-.02.025,13.758,13.758,0,0,0-1.048,1.259c0,.005-.005.016-.01.018a14.831,14.831,0,0,0-.894,1.37c-.015.028-.031.05-.043.078a15.049,15.049,0,0,0-.731,1.446c0,.005-.005.015-.01.017a14.346,14.346,0,0,0-.562,1.529l0,.02a11.276,11.276,0,0,0-.358,1.542v.01a9.075,9.075,0,0,0-.123,1.509l-9.619-5.592c0-.1,0-.186.005-.282s.007-.194.013-.294.015-.205.022-.3.023-.2.035-.3.028-.209.043-.31l0-.012,0-.011c.015-.095.03-.2.051-.294s.043-.214.065-.325.05-.217.076-.328.057-.221.088-.329c.023-.089.05-.174.075-.26a.064.064,0,0,0,.005-.02c.008-.018.011-.036.018-.056.033-.1.065-.211.1-.322s.075-.214.113-.317.076-.2.113-.3.081-.2.124-.3c.033-.079.065-.152.1-.227a.033.033,0,0,0,0-.015c.008-.018.018-.041.025-.061.046-.1.091-.2.139-.3s.106-.219.159-.328l.193-.378c.071-.128.142-.257.215-.382.015-.023.03-.05.045-.078s.033-.058.05-.091c.149-.249.3-.5.466-.743.121-.181.247-.358.378-.536a.078.078,0,0,1,.013-.018l.005-.008c.09-.123.183-.247.279-.365.078-.1.159-.2.24-.294s.158-.192.241-.285.161-.182.242-.272a.252.252,0,0,0,.038-.036c.007-.009.015-.012.02-.022.066-.068.131-.141.2-.207.085-.088.174-.176.262-.256s.181-.174.272-.255.184-.164.277-.247c.046-.035.09-.073.136-.108a.306.306,0,0,1,.03-.023c.035-.032.076-.065.111-.093.091-.07.184-.138.275-.209s.179-.131.269-.189.176-.119.267-.179.174-.108.262-.158c.02-.016.04-.023.06-.038l80.542-46.5c.068-.035.133-.073.2-.109.086-.045.171-.09.257-.131s.166-.083.25-.118.166-.073.251-.111.166-.063.249-.09a.261.261,0,0,1,.056-.018.016.016,0,0,1,.01,0c.063-.023.126-.04.184-.06.088-.026.171-.048.257-.071a2.226,2.226,0,0,1,.257-.055c.091-.018.181-.036.272-.046.063-.01.126-.015.191-.022h.025c.02,0,.041-.006.061-.006.1-.009.2-.012.3-.012s.216.007.322.018a2.624,2.624,0,0,1,.36.05.017.017,0,0,1,.01.005l.015,0a2.912,2.912,0,0,1,.414.114,3.423,3.423,0,0,1,.506.234l9.618,5.592a2.909,2.909,0,0,0-.917-.348.016.016,0,0,0-.014-.005,3.6,3.6,0,0,0-1.051-.053h-.025a5.3,5.3,0,0,0-1.153.249.2.2,0,0,0-.021.011,6.875,6.875,0,0,0-1.257.576l-80.541,46.5a9.465,9.465,0,0,0-1.247.864.09.09,0,0,0-.03.025A11.041,11.041,0,0,0,552.85,522.374Z" transform="translate(-539.427 -467.467)" fill="#376375" fill-rule="evenodd"/>
          <path id="Tracé_76" data-name="Tracé 76" d="M555.273,520.414l80.541-46.5c3.456-2,6.252-.368,6.265,3.572l.123,56.181a13.745,13.745,0,0,1-6.227,10.782l-80.541,46.5c-3.456,1.993-6.254.371-6.264-3.569l-.123-56.183A13.731,13.731,0,0,1,555.273,520.414Z" transform="translate(-539.427 -467.467)" fill="#294f5e" fill-rule="evenodd"/>
        </g>
      </g>
      <path id="Tracé_77" data-name="Tracé 77" d="M690,634.882l-5.222,29.756,2.2,97.139c3.819,13.6,36.541,15.535,41.534-8.452,1-43.427,1.43-88.453,1.382-128.615-7.365-12.893-37.692-33.73-44.333-34.63Z" transform="translate(-539.427 -467.467)" fill="#021a30" fill-rule="evenodd"/>
      <g id="Groupe_17" data-name="Groupe 17" transform="translate(34.447 100.772)">
        <path id="Tracé_78" data-name="Tracé 78" d="M654.372,568.239c21.565,8.457,59.529,31.352,72.381,44.152,2.081,2.07,2.418,5.155,2.8,7.785,2.956,20.549-16.228,26.622-26.537,23.492-28.876-8.77-50.728-29.537-77.217-50.694Z" transform="translate(-573.874 -568.239)" fill="#021a30" fill-rule="evenodd"/>
        <path id="Tracé_79" data-name="Tracé 79" d="M622.67,585.867c21.562,8.457,64.787,37.18,75.934,54.033a18.8,18.8,0,0,1,2.8,7.782c2.96,20.553-16.656,29.4-26.962,26.268-20.729-6.295-50.9-21.553-72.155-36.277-8.924-6.181-35.689-10.719-26.529-62.468Z" transform="translate(-573.874 -568.239)" fill="#032747" fill-rule="evenodd"/>
      </g>
      <path id="Tracé_80" data-name="Tracé 80" d="M695.114,776.245c2.222,9.7,24.99,27.71,29.463,32.662,2.831,3.133,1.1,10.84-3.143,13.555-4.514,2.882-12.173,2.751-18.157,1.834-6.931-1.058-15.132-8.357-24.28-14.1s-20.441-9.641-20.436-14.89c.476-7.148,2.45-12.6,3.914-22.89l13.213,3.547Z" transform="translate(-539.427 -467.467)" fill="#615d54" fill-rule="evenodd"/>
      <path id="Tracé_81" data-name="Tracé 81" d="M661.555,655.012l-5.221,29.757,2.773,87.471c.023,13.052,40.777,22.341,40.963,1.566,1.028-42.605,1.557-84.236,1.512-124.444-7.367-12.9-37.823-38.251-44.462-39.15Z" transform="translate(-539.427 -467.467)" fill="#032747" fill-rule="evenodd"/>
    </g>
    <path id="Tracé_82" data-name="Tracé 82" d="M591.229,467.26c13.956-23.436,54.015-28.319,67.384-27.012,8.984.879,20.286,5.357,24.454,13.364,15.371,29.526-27.464,79.275-31.846,96.956-.995,4.017,1.179,7.732,3.415,11.938-14.575,43.326-81.4,30.743-79.9,13.082.722-8.493,6.573-26.7,10.422-45.744C590.859,501.65,582.346,482.173,591.229,467.26Z" transform="translate(-539.427 -440.054)" fill="#dce7e8" fill-rule="evenodd"/>
  </g>
  <g id="Groupe_22" data-name="Groupe 22" transform="translate(60.053 239.787)">
    <g id="Groupe_20" data-name="Groupe 20" transform="translate(413.274)">
      <path id="Tracé_83" data-name="Tracé 83" d="M903.1,417.537l.332,160.131,17.449,10.141-.357-170.272Z" transform="translate(-903.1 -417.537)" fill="#828994" fill-rule="evenodd"/>
      <path id="Tracé_84" data-name="Tracé 84" d="M920.524,417.537l.357,170.272,17-9.823-.332-160.449Z" transform="translate(-903.1 -417.537)" fill="#98a0ad" fill-rule="evenodd"/>
    </g>
    <g id="Groupe_21" data-name="Groupe 21" transform="translate(0 238.553)">
      <path id="Tracé_85" data-name="Tracé 85" d="M489.826,656.09l.335,160.131,17.447,10.14-.355-170.271Z" transform="translate(-489.826 -656.09)" fill="#828994" fill-rule="evenodd"/>
      <path id="Tracé_86" data-name="Tracé 86" d="M507.252,656.09l.355,170.271,17-9.823-.332-160.448Z" transform="translate(-489.826 -656.09)" fill="#98a0ad" fill-rule="evenodd"/>
    </g>
  </g>
  <g id="Groupe_25" data-name="Groupe 25" transform="translate(229.964 357.209)">
    <g id="Groupe_23" data-name="Groupe 23" transform="translate(413.433)">
      <path id="Tracé_87" data-name="Tracé 87" d="M1073.17,534.959l.292,139.1,17.449,10.14-.312-149.239Z" transform="translate(-1073.17 -534.959)" fill="#828994" fill-rule="evenodd"/>
      <path id="Tracé_88" data-name="Tracé 88" d="M1090.6,534.959l.312,149.239,17-9.825-.287-139.413Z" transform="translate(-1073.17 -534.959)" fill="#98a0ad" fill-rule="evenodd"/>
    </g>
    <g id="Groupe_24" data-name="Groupe 24" transform="translate(0 162.023)">
      <path id="Tracé_89" data-name="Tracé 89" d="M677.183,707.123l-17.447-10.14.451,215.627,17.449,10.14Z" transform="translate(-659.737 -696.983)" fill="#828994" fill-rule="evenodd"/>
      <path id="Tracé_90" data-name="Tracé 90" d="M677.183,707.123l.453,215.627,17-9.822L694.192,697.3Z" transform="translate(-659.737 -696.983)" fill="#98a0ad" fill-rule="evenodd"/>
    </g>
  </g>
  <g id="Groupe_26" data-name="Groupe 26" transform="translate(3.398 196.615)">
    <path id="Tracé_91" data-name="Tracé 91" d="M433.171,658.208,433.249,687C535.2,746.248,567.756,764.558,669.708,823.8l-.083-28.793C567.674,735.765,535.121,717.454,433.171,658.208Z" transform="translate(-433.171 -374.365)" fill="#bac2d1" fill-rule="evenodd"/>
    <path id="Tracé_92" data-name="Tracé 92" d="M926.921,374.365,433.171,658.208c101.958,59.251,134.5,77.552,236.454,136.8l493.754-283.841C1061.418,451.914,1028.882,433.619,926.921,374.365Z" transform="translate(-433.171 -374.365)" fill="#d4ddec" fill-rule="evenodd"/>
    <path id="Tracé_93" data-name="Tracé 93" d="M669.628,795.009l.081,28.793,493.736-283.845-.076-28.791Z" transform="translate(-433.171 -374.365)" fill="#c8d1e0" fill-rule="evenodd"/>
  </g>
  <g id="Groupe_28" data-name="Groupe 28" transform="translate(207.352 204.915)">
    <path id="Tracé_94" data-name="Tracé 94" d="M658.079,428.644c-4.641,11.107-10.2,14.16-15.658,24.089-2.7,9.931,11.16,25.476,22.313,20.663,5.294-6.539,11.956-12.092,16.915-17.661Z" transform="translate(-637.124 -382.665)" fill="#f0c17d" fill-rule="evenodd"/>
    <g id="Groupe_27" data-name="Groupe 27">
      <path id="Tracé_95" data-name="Tracé 95" d="M699.831,422.348c1.126,10.23,3.2,6.881-.473,23.97-1.1,5.118-9.782,18.265-11.085,19.429-1.72,1.533-6.125,2.737-8.553,2.71-4.843-.056-16.921-9.475-19.9-12.329-7.012-6.707-10.155-8.4-9.634-16.641l-1.71-9.256-1.194-27.541c15.444-7.249,29.2-12.571,37.226-10.813C692.575,393.645,697.617,402.271,699.831,422.348Z" transform="translate(-637.124 -382.665)" fill="#ffdba7" fill-rule="evenodd"/>
      <path id="Tracé_96" data-name="Tracé 96" d="M648.639,391.895c-22.25,9.351-6.4,40.5-.75,49.978,1.4-1.038,3.372-.54,3.224-2.55-.33-4.394,1.4-8.515,3.851-9.309,2.975-.962,5.707,2.156,7.193,10.707,2.31-3.722,5.418-8.155,7.7-15.076.295.131,33.1.075,36.7-18.958-5.3-2.242-14.157-21.051-24.746-23.2C668.945,380.876,654.364,384.7,648.639,391.895Z" transform="translate(-637.124 -382.665)" fill="#632404" fill-rule="evenodd"/>
    </g>
  </g>
  <g id="Groupe_29" data-name="Groupe 29" transform="translate(226.805 343.291)">
    <path id="Tracé_97" data-name="Tracé 97" d="M710.221,602.084l-53.642-18.391.028,3.6,52.106,30.282Z" transform="translate(-656.578 -521.041)" fill="#636262" fill-rule="evenodd"/>
    <path id="Tracé_98" data-name="Tracé 98" d="M656.578,583.69l52.107,19.417q54.273-31.335,108.538-62.657l-52.1-19.409Z" transform="translate(-656.578 -521.041)" fill="#787878" fill-rule="evenodd"/>
    <path id="Tracé_99" data-name="Tracé 99" d="M817.262,554.91l-.028-14.455-.011-.005q-54.273,31.33-108.538,62.657l.027,14.467Q762.994,586.236,817.262,554.91Z" transform="translate(-656.578 -521.041)" fill="#484d4b" fill-rule="evenodd"/>
  </g>
  <g id="Groupe_30" data-name="Groupe 30" transform="translate(126.236 281.916)">
    <path id="Tracé_100" data-name="Tracé 100" d="M641.441,570.923c2.058.537,4.156.65,9.42-.367,4.914-.952,10.81-3.937,12.765-3.71l16.638,1.957c5.218.982,6.78,3.536,5.823,4.908-1.111,1.592-5.549,1.942-10.717,1.782,9.251,5.747,11.873,7.658,17.431,14.534,4.451,5.506-6.429,9.934-8.787,9.934-10.556,0-17.593-7.914-27.892-8.322-11.437-.453-15.011-2.753-25.446-7.339Z" transform="translate(-556.009 -459.667)" fill="#ffdba7" fill-rule="evenodd"/>
    <path id="Tracé_101" data-name="Tracé 101" d="M619.64,483.849c-4.139,26.186-29.083,65.873-40.762,86.8l-20.391-2.914c.388-1.254-2.464-5.332-2.063-6.649,8.135-26.776,18.691-66.946,31.317-88.919,5.228-9.09,14.3-14.551,21.426-11.775C619.481,464.4,621.148,474.28,619.64,483.849Z" transform="translate(-556.009 -459.667)" fill="#ebf4f5" fill-rule="evenodd"/>
    <path id="Tracé_102" data-name="Tracé 102" d="M575.251,546.638c23.375,4.051,51.184,15.808,74.567,21.928,2.318,3.909-3.45,19.87-6.742,22.5-23.512-4.881-48.346-8.047-71.586-13.744-12.525-3.07-15.935-8.921-15.434-15.419C556.615,554.681,563.169,544.541,575.251,546.638Z" transform="translate(-556.009 -459.667)" fill="#ebf4f5" fill-rule="evenodd"/>
  </g>
  <g id="Groupe_31" data-name="Groupe 31" transform="translate(357.464 219.065)">
    <path id="Tracé_103" data-name="Tracé 103" d="M822.551,448.781c3.81,10.495,8.107,10.661,12.465,16.089,1.979,2.463,5.921,12.465,6.576,16.475.823,4.228.2,9.379-3.8,9.78a45.117,45.117,0,0,1-8.475-11.314c-3.529-2.937-6.607-6.025-11.231-8.672-.023,3.085,1.473,9.344,1.093,11.639-.433,2.614-5.266,2.544-5.858-.458-.3-1.532-.083-3.909-.6-7.358-.1-.644-2.007-6.553-2.007-6.553-1.756-4.287-2.264-5.012-.771-8.143l1.511-8.208Z" transform="translate(-787.237 -396.815)" fill="#f0c17d" fill-rule="evenodd"/>
    <path id="Tracé_104" data-name="Tracé 104" d="M806,397.347c7.208,13.871,14.359,43.928,18.041,54.066.176,5.181-12.583,5.022-13.729,2.065-4.428-7.87-17.9-34.682-23.078-49.983C791.52,398.778,800.192,395.478,806,397.347Z" transform="translate(-787.237 -396.815)" fill="#c8d8d9" fill-rule="evenodd"/>
  </g>
  <g id="Groupe_32" data-name="Groupe 32" transform="translate(292.507 150.476)">
    <path id="Tracé_105" data-name="Tracé 105" d="M830.651,427.133c20.63,11.367,8.941,1.431,30.191,6.889,5.934,1.523,8.959,12.036,16.963,22.136,2.2,2.884,2.7,5.541.894,7.717-3.448,4.149-9.888-1.839-14.895-5.491-6.713-4.9-12.936-4.024-19.132-5.921-3.99-1.219-5.936-2.863-9.687-6.037l-10.961-7.732C825.795,434.432,827.983,431.924,830.651,427.133Z" transform="translate(-722.28 -328.226)" fill="#ffdba7" fill-rule="evenodd"/>
    <path id="Tracé_106" data-name="Tracé 106" d="M843.461,432.422c2.282,4.657-4.773,13.573-10.06,13.745l-60.949-34.723c-2.589-1.886-3.9-1.869-5.715-4.72-2.06-4.868,6.37-26.521,22.973-11.545C803.678,406.354,828.724,422.423,843.461,432.422Z" transform="translate(-722.28 -328.226)" fill="#dce7e8" fill-rule="evenodd"/>
    <path id="Tracé_107" data-name="Tracé 107" d="M737.9,329.112c8.82,4.186,17.578,20.844,21.746,26.584,6.438,8.864,17.2,26.983,24.232,34.07,1.443,6.237-5.392,19.805-15.817,18.664-5.256-6.164-18.273-18.165-25.255-26.663-10.608-13.7-16.537-21.587-19.172-28.053C718.945,342.212,727.121,324,737.9,329.112Z" transform="translate(-722.28 -328.226)" fill="#dce7e8" fill-rule="evenodd"/>
  </g>
  <path id="Tracé_108" data-name="Tracé 108" d="M990.86,282.031C986.6,298,986.6,332.026,989.324,353.019c1.788,13.795,19.7,22.111,22.088,9.319,3.995-21.414,10.75-59.534,4.4-76.572C1010.224,270.73,993.766,271.127,990.86,282.031Z" transform="translate(-429.773 -177.75)" fill="#10d5e3" fill-rule="evenodd"/>
  <g id="Groupe_33" data-name="Groupe 33" transform="translate(511.454 171.995)">
    <path id="Tracé_109" data-name="Tracé 109" d="M990.407,421.368l-4.766,14.578c-7.59,10.253-14.326,7.69-22.99,12.4-2.639,1.434-8.579,7.486-11.284,9.085-2.413,1.426-5.294,1.66-10.14-1.1.65-5.161,5.738-18.684,20.361-29.517,11.6-1.176,12.367,1.063,16.785-5.475Z" transform="translate(-941.227 -349.745)" fill="#f0c17d" fill-rule="evenodd"/>
    <path id="Tracé_110" data-name="Tracé 110" d="M971.9,424.713c3.905-17.563,9.965-41.76,13.662-58.161a99.562,99.562,0,0,1,4.906-16.807c16.039.39,22.457,5.329,20.467,16.192-2.806,15.306-15.888,51.854-22.366,65.634C985.778,434,970.545,430.843,971.9,424.713Z" transform="translate(-941.227 -349.745)" fill="#10d5e3" fill-rule="evenodd"/>
  </g>
  <path id="Tracé_111" data-name="Tracé 111" d="M893.247,421.582c-2.272,2.806-2.186,6.4-5.783,13.43-3.269,4.924-3.4,8.183-2.282,9.828.884,1.291,2.264,2.087,5.425-1.426l5.219-10.591-.615,6.825-.5,4.909c.518,6.594-.7,14.923,2.261,17.52,1.784,1.567,5.406,2.428,11.188,1.685,4.1-1.421,3.773-10.085,8.755-19.759,1.652-6.934,2.826-6.279,1.8-18.155l-.006-15.459-14.069-.481c-1.37,1.947-3.591,5.74-5.344,7.292C895.307,420.731,896.214,417.917,893.247,421.582Z" transform="translate(-429.773 -177.75)" fill="#f0c17d" fill-rule="evenodd"/>
  <g id="Groupe_34" data-name="Groupe 34" transform="translate(374.958 226.715)">
    <path id="Tracé_112" data-name="Tracé 112" d="M932.719,599.354a1.073,1.073,0,0,1,.58.119h-.011l-42.464-24.681a.656.656,0,0,0-.1-.045l-.1-.038c-.036-.008-.066-.012-.106-.023l-.106-.012h-.126c-.01,0-.025,0-.041,0h-.009c-.031,0-.056,0-.081.009a1.019,1.019,0,0,0-.161.038,1.735,1.735,0,0,0-.212.068,2.6,2.6,0,0,0-.251.128L844.8,600.747l42.464,24.68L932.009,599.6a1.721,1.721,0,0,1,.7-.237C932.714,599.359,932.719,599.359,932.719,599.354Z" transform="translate(-804.731 -404.465)" fill="#787878" fill-rule="evenodd"/>
    <path id="Tracé_113" data-name="Tracé 113" d="M885.426,628.613a3.073,3.073,0,0,1,.144-.9c0-.01,0-.016.005-.02a4.143,4.143,0,0,1,.388-.889V626.8a4.357,4.357,0,0,1,.574-.773.11.11,0,0,1,.028-.032,3.127,3.127,0,0,1,.7-.57L844.8,600.747a3.257,3.257,0,0,0-.617.478c-.031.031-.058.063-.086.091a.11.11,0,0,1-.03.031c-.03.035-.058.06-.086.092-.052.059-.1.124-.151.185s-.083.108-.123.168l-.106.157c-.032.055-.065.105-.1.155l-.007.016-.005.007c-.026.045-.051.091-.074.134s-.055.1-.08.161-.05.1-.073.158-.048.111-.068.167-.043.113-.063.173c-.01.033-.017.063-.03.1a.03.03,0,0,1,0,.018c-.008.023-.015.053-.023.076-.018.065-.035.14-.05.209a2.084,2.084,0,0,0-.045.256,3.021,3.021,0,0,0-.023.363l0,1.5a1.294,1.294,0,0,0,.54,1.184L885.971,631.3a1.291,1.291,0,0,1-.539-1.184Z" transform="translate(-804.731 -404.465)" fill="#636262" fill-rule="evenodd"/>
    <path id="Tracé_114" data-name="Tracé 114" d="M933.838,600.664c0-1.174-.832-1.645-1.829-1.068l-44.742,25.831a4.062,4.062,0,0,0-1.841,3.186l.006,1.5c0,1.174.83,1.647,1.851,1.055l44.741-25.828a4.047,4.047,0,0,0,1.818-3.174Z" transform="translate(-804.731 -404.465)" fill="#484d4b" fill-rule="evenodd"/>
    <path id="Tracé_115" data-name="Tracé 115" d="M865.484,583.059l-1.962,24.874,8.508,4.944L873.992,588Z" transform="translate(-804.731 -404.465)" fill="#a1a3a2" fill-rule="evenodd"/>
    <path id="Tracé_116" data-name="Tracé 116" d="M909.386,567.568l-9.374-3.954L873.992,588l-1.962,24.872L911.482,590.1Z" transform="translate(-804.731 -404.465)" fill="#8a8c8b" fill-rule="evenodd"/>
    <path id="Tracé_117" data-name="Tracé 117" d="M813.519,603.732l1.153-99.3-9.941-5.082.282,99.439.005,2.007.028,9.531a6.272,6.272,0,0,0,.524,2.647,3.514,3.514,0,0,0,1.413,1.6l8.508,4.946c-1.192-.69-1.932-2.16-1.94-4.241l-.025-9.54Z" transform="translate(-804.731 -404.465)" fill="#8a8c8b" fill-rule="evenodd"/>
    <path id="Tracé_118" data-name="Tracé 118" d="M964.157,409.7a5.874,5.874,0,0,1,.967-.247.321.321,0,0,1,.066-.005,4.306,4.306,0,0,1,.952-.02c.03,0,.06.01.086.01a3.469,3.469,0,0,1,.886.212l-8.508-4.942a2.976,2.976,0,0,0-.3-.1,2.753,2.753,0,0,0-.383-.086c-.065-.01-.136-.018-.2-.023-.029-.007-.06-.007-.085-.012a.729.729,0,0,0-.126-.013,3.929,3.929,0,0,0-.448-.007c-.121.005-.252.025-.383.037a.171.171,0,0,1-.066.008.136.136,0,0,1-.045.005,4.8,4.8,0,0,0-.579.124c-.111.027-.227.08-.338.115-.081.025-.161.048-.241.081-.061.023-.122.043-.187.066a7.614,7.614,0,0,0-.917.453L811.335,487.9a14.672,14.672,0,0,0-6.6,11.284v.161l8.506,4.939c-.015-4.329,4.115-8.578,7.573-10.578L962.817,410.3a7.469,7.469,0,0,1,1.1-.521C964,409.752,964.081,409.729,964.157,409.7Z" transform="translate(-804.731 -404.465)" fill="#8a8c8b" fill-rule="evenodd"/>
    <path id="Tracé_119" data-name="Tracé 119" d="M969.467,414.094c-.006-2.3-.912-3.851-2.353-4.438a4.973,4.973,0,0,0-4.3.647L819.843,492.845a14.612,14.612,0,0,0-6.606,11.442l.282,99.445.007,2,.025,9.54c.013,4.186,3,5.894,6.652,3.788l142.972-82.547a14.594,14.594,0,0,0,6.6-11.442l-.025-9.533Z" transform="translate(-804.731 -404.465)" fill="#a1a3a2" fill-rule="evenodd"/>
  </g>
  <path id="Tracé_120" data-name="Tracé 120" d="M901.82,413.112c5.743-17.331,11.742-44,17.092-61.3,2.206-7.144,5.158-9.513,8.508-16.765,15.958,1.635,20.119,8.907,17.288,19.583-3.985,15.044-18.069,48.114-25.6,61.349C914.756,419.033,905.014,417.436,901.82,413.112Z" transform="translate(-429.773 -177.75)" fill="#079da8" fill-rule="evenodd"/>
  <g id="Groupe_36" data-name="Groupe 36" transform="translate(255.148 253.54)">
    <path id="Tracé_121" data-name="Tracé 121" d="M734.788,523.248c-1.768,18.948-18.13,18.366-23.033,11.659l-26.834-29.882L707.909,479.7C717.986,491.807,726.814,512.005,734.788,523.248Z" transform="translate(-684.921 -431.29)" fill="#c8d8d9" fill-rule="evenodd"/>
    <g id="Groupe_35" data-name="Groupe 35" transform="translate(20.549)">
      <path id="Tracé_122" data-name="Tracé 122" d="M761.815,439.825c2.824-2.249,6.418-2.134,13.473-5.675,4.949-3.231,8.211-3.342,9.848-2.2,1.282.894,2.065,2.279-1.471,5.41l-8.511,6.433,8.1,1.438,4.911-.463,12.3-7.592c3.821-2.687,4.8-.047,7.211,4.418,3.655,5.7-4.624,10.848-12.643,17.616-7.629,5.042-6.761,6.548-15.616,5.271l-13.8-1.99-6.977,6.479L746.89,455.654c1.957-1.352,5.765-3.546,7.332-5.286C757.786,446.406,758.126,442.764,761.815,439.825Z" transform="translate(-705.47 -431.29)" fill="#ffdba7" fill-rule="evenodd"/>
      <path id="Tracé_123" data-name="Tracé 123" d="M750.477,450.652c6.8-.456,15.786,8.861,18.686,12.342l-29.645,53.6c-4.955,8.954-9.851,22.865-22.565,20.407-7.891-1.526-12.59-10.831-11.258-17.233C710.551,496.442,732.959,474.519,750.477,450.652Z" transform="translate(-705.47 -431.29)" fill="#c8d8d9" fill-rule="evenodd"/>
    </g>
  </g>
</svg>
